<?xml version="1.0" encoding="iso-8859-1"?>
<!-- Generator: Adobe Illustrator 16.0.0, SVG Export Plug-In . SVG Version: 6.00 Build 0)  -->
<!DOCTYPE svg PUBLIC "-//W3C//DTD SVG 1.1//EN" "http://www.w3.org/Graphics/SVG/1.1/DTD/svg11.dtd">
<svg version="1.1" id="Layer_1" xmlns="http://www.w3.org/2000/svg" xmlns:xlink="http://www.w3.org/1999/xlink" x="0px" y="0px"
	 width="64px" height="63.999px" viewBox="0 0 64 63.999" style="enable-background:new 0 0 64 63.999;" xml:space="preserve">
<g id="Button_18_">
	<g>
		<path style="fill:#ED7161;" d="M60,0H4C1.791,0,0,1.79,0,4v55.999c0,2.21,1.791,4,4,4h56c2.21,0,4-1.79,4-4V4
			C64,1.79,62.21,0,60,0z"/>
	</g>
</g>
<g id="Arrow_7_">
	<g>
		<path style="fill-rule:evenodd;clip-rule:evenodd;fill:#FFFFFF;" d="M44.001,17.998h-6c-1.104,0-2,0.896-2,2c0,1.105,0.896,2,2,2
			h1.05l-4.411,4.467c-0.811,0.816-0.811,2.14-0.001,2.955c0.81,0.817,2.122,0.817,2.933,0l4.43-4.485v1.063
			c0,1.105,0.896,2.001,2,2.001s2-0.896,2-2.001v-6C46.001,18.894,45.105,17.998,44.001,17.998z M26.475,34.637l-4.453,4.461v-1.057
			c0-1.1-0.899-1.99-2.011-1.99c-1.109,0-2.01,0.891-2.01,1.99v5.969c0,1.099,0.9,1.989,2.01,1.989h6.032
			c1.11,0,2.01-0.891,2.01-1.989c0-1.1-0.899-1.989-2.01-1.989h-1.057l4.436-4.443c0.813-0.812,0.813-2.129,0-2.94
			S27.289,33.825,26.475,34.637z M43.989,35.999c-1.097,0-1.984,0.896-1.984,2v1.051l-4.434-4.411
			c-0.811-0.812-2.124-0.812-2.934-0.002c-0.811,0.81-0.811,2.122,0,2.932l4.451,4.43h-1.051c-1.097,0-1.985,0.896-1.985,2.001
			c0,1.104,0.889,2,1.985,2h5.951c1.096,0,1.985-0.896,1.985-2v-6C45.975,36.895,45.085,35.999,43.989,35.999z M24.948,22.02h1.057
			c1.103,0,1.996-0.899,1.996-2.01s-0.894-2.011-1.996-2.011h-5.982c-1.102,0-1.995,0.9-1.995,2.011v6.03
			c0,1.111,0.894,2.011,1.995,2.011c1.104,0,1.995-0.899,1.995-2.011v-1.057l4.457,4.436c0.814,0.814,2.135,0.815,2.948,0.001
			c0.815-0.814,0.815-2.133,0-2.947L24.948,22.02z"/>
	</g>
</g>
<g>
</g>
<g>
</g>
<g>
</g>
<g>
</g>
<g>
</g>
<g>
</g>
<g>
</g>
<g>
</g>
<g>
</g>
<g>
</g>
<g>
</g>
<g>
</g>
<g>
</g>
<g>
</g>
<g>
</g>
</svg>
