<?xml version="1.0" encoding="iso-8859-1"?>
<!-- Generator: Adobe Illustrator 16.0.0, SVG Export Plug-In . SVG Version: 6.00 Build 0)  -->
<!DOCTYPE svg PUBLIC "-//W3C//DTD SVG 1.1//EN" "http://www.w3.org/Graphics/SVG/1.1/DTD/svg11.dtd">
<svg version="1.1" id="Layer_1" xmlns="http://www.w3.org/2000/svg" xmlns:xlink="http://www.w3.org/1999/xlink" x="0px" y="0px"
	 width="64px" height="64.001px" viewBox="0 0 64 64.001" style="enable-background:new 0 0 64 64.001;" xml:space="preserve">
<g id="Elipse_90_">
	<g>
		<path style="fill-rule:evenodd;clip-rule:evenodd;fill:#CCCCCC;" d="M32,0C14.327,0,0,14.328,0,32.001s14.327,32,32,32
			s32-14.327,32-32S49.673,0,32,0z M32,60.002c-15.464,0-28-12.537-28-28.001c0-15.465,12.536-28,28-28s28,12.535,28,28
			C60,47.465,47.464,60.002,32,60.002z"/>
	</g>
</g>
<g id="Back">
	<g>
		<path style="fill-rule:evenodd;clip-rule:evenodd;fill:#88C057;" d="M31.007,37.929l-9.339-5.928l9.339-5.929
			c0.949-0.603,1.274-1.937,0.727-2.98c-0.548-1.043-1.762-1.401-2.711-0.799l-12.03,7.638c-0.687,0.436-1.042,1.255-0.98,2.07
			c-0.062,0.815,0.293,1.635,0.98,2.071l12.03,7.636c0.949,0.603,2.163,0.245,2.711-0.798
			C32.281,39.866,31.956,38.531,31.007,37.929z M42,21.999c-0.386,0-0.725,0.139-1.03,0.328l-11.978,7.604
			c-0.648,0.41-0.978,1.167-0.964,1.936c-0.006,0.045-0.005,0.089-0.009,0.135c0.004,0.046,0.002,0.089,0.009,0.135
			c-0.014,0.769,0.315,1.524,0.964,1.937l12.01,7.623C41.3,41.871,41.629,42,42,42c1.104,0,2-0.896,2-1.999V24
			C44,22.895,43.104,21.999,42,21.999z"/>
	</g>
</g>
<g>
</g>
<g>
</g>
<g>
</g>
<g>
</g>
<g>
</g>
<g>
</g>
<g>
</g>
<g>
</g>
<g>
</g>
<g>
</g>
<g>
</g>
<g>
</g>
<g>
</g>
<g>
</g>
<g>
</g>
</svg>
