<?xml version="1.0" encoding="iso-8859-1"?>
<!-- Generator: Adobe Illustrator 16.0.0, SVG Export Plug-In . SVG Version: 6.00 Build 0)  -->
<!DOCTYPE svg PUBLIC "-//W3C//DTD SVG 1.1//EN" "http://www.w3.org/Graphics/SVG/1.1/DTD/svg11.dtd">
<svg version="1.1" id="Layer_1" xmlns="http://www.w3.org/2000/svg" xmlns:xlink="http://www.w3.org/1999/xlink" x="0px" y="0px"
	 width="64px" height="64.001px" viewBox="0 0 64 64.001" style="enable-background:new 0 0 64 64.001;" xml:space="preserve">
<g id="Elipse_88_">
	<g>
		<path style="fill-rule:evenodd;clip-rule:evenodd;fill:#CCCCCC;" d="M32,0C14.327,0,0,14.328,0,32.001s14.327,32,32,32
			s32-14.327,32-32S49.673,0,32,0z M32,60.002c-15.464,0-28-12.537-28-28.001c0-15.465,12.536-28,28-28s28,12.535,28,28
			C60,47.465,47.464,60.002,32,60.002z"/>
	</g>
</g>
<g id="Previous">
	<g>
		<path style="fill-rule:evenodd;clip-rule:evenodd;fill:#9B7CAB;" d="M24,22c-1.104,0-2,0.896-2,2.001v16
			C22,41.104,22.896,42,24,42s2-0.896,2-1.999v-16C26,22.896,25.104,22,24,22z M40,21.999c-0.386,0-0.725,0.139-1.03,0.328
			l-11.978,7.604c-0.648,0.41-0.978,1.167-0.964,1.936c-0.006,0.045-0.005,0.089-0.009,0.135c0.004,0.046,0.002,0.089,0.009,0.135
			c-0.014,0.769,0.315,1.524,0.964,1.937l12.01,7.623C39.3,41.871,39.629,42,40,42c1.104,0,2-0.896,2-1.999V24
			C42,22.895,41.104,21.999,40,21.999z"/>
	</g>
</g>
<g>
</g>
<g>
</g>
<g>
</g>
<g>
</g>
<g>
</g>
<g>
</g>
<g>
</g>
<g>
</g>
<g>
</g>
<g>
</g>
<g>
</g>
<g>
</g>
<g>
</g>
<g>
</g>
<g>
</g>
</svg>
