<?xml version="1.0" encoding="iso-8859-1"?>
<!-- Generator: Adobe Illustrator 16.0.0, SVG Export Plug-In . SVG Version: 6.00 Build 0)  -->
<!DOCTYPE svg PUBLIC "-//W3C//DTD SVG 1.1//EN" "http://www.w3.org/Graphics/SVG/1.1/DTD/svg11.dtd">
<svg version="1.1" id="Layer_1" xmlns="http://www.w3.org/2000/svg" xmlns:xlink="http://www.w3.org/1999/xlink" x="0px" y="0px"
	 width="64px" height="64.001px" viewBox="0 0 64 64.001" style="enable-background:new 0 0 64 64.001;" xml:space="preserve">
<g id="Elipse_89_">
	<g>
		<path style="fill-rule:evenodd;clip-rule:evenodd;fill:#CCCCCC;" d="M32,0C14.327,0,0,14.328,0,32.001s14.327,32,32,32
			s32-14.327,32-32S49.673,0,32,0z M32,60.002c-15.464,0-28-12.537-28-28.001c0-15.465,12.536-28,28-28s28,12.535,28,28
			C60,47.465,47.464,60.002,32,60.002z"/>
	</g>
</g>
<g id="Forward">
	<g>
		<path style="fill-rule:evenodd;clip-rule:evenodd;fill:#88C057;" d="M47.008,29.93l-12.031-7.637
			c-0.948-0.603-2.162-0.244-2.71,0.799c-0.548,1.044-0.223,2.378,0.726,2.979l9.341,5.93l-9.341,5.928
			c-0.948,0.603-1.273,1.938-0.726,2.981c0.548,1.043,1.762,1.399,2.71,0.798l12.031-7.636c0.688-0.437,1.041-1.256,0.979-2.071
			C48.049,31.186,47.695,30.366,47.008,29.93z M35.972,32.136c0.006-0.046,0.005-0.089,0.009-0.135
			c-0.004-0.046-0.003-0.09-0.009-0.135c0.013-0.769-0.315-1.525-0.964-1.936L23.03,22.327c-0.306-0.189-0.645-0.328-1.03-0.328
			c-1.104,0-2,0.896-2,2.001v16.001C20,41.104,20.896,42,22,42c0.371,0,0.699-0.129,0.998-0.305l12.01-7.623
			C35.656,33.66,35.984,32.904,35.972,32.136z"/>
	</g>
</g>
<g>
</g>
<g>
</g>
<g>
</g>
<g>
</g>
<g>
</g>
<g>
</g>
<g>
</g>
<g>
</g>
<g>
</g>
<g>
</g>
<g>
</g>
<g>
</g>
<g>
</g>
<g>
</g>
<g>
</g>
</svg>
