<?xml version="1.0" encoding="iso-8859-1"?>
<!-- Generator: Adobe Illustrator 16.0.0, SVG Export Plug-In . SVG Version: 6.00 Build 0)  -->
<!DOCTYPE svg PUBLIC "-//W3C//DTD SVG 1.1//EN" "http://www.w3.org/Graphics/SVG/1.1/DTD/svg11.dtd">
<svg version="1.1" id="Layer_1" xmlns="http://www.w3.org/2000/svg" xmlns:xlink="http://www.w3.org/1999/xlink" x="0px" y="0px"
	 width="64px" height="64.001px" viewBox="0 0 64 64.001" style="enable-background:new 0 0 64 64.001;" xml:space="preserve">
<g id="Elipse_92_">
	<g>
		<path style="fill-rule:evenodd;clip-rule:evenodd;fill:#CCCCCC;" d="M32,0C14.327,0,0,14.328,0,32.001s14.327,32,32,32
			s32-14.327,32-32S49.673,0,32,0z M32,60.002c-15.464,0-28-12.537-28-28.001c0-15.465,12.536-28,28-28s28,12.535,28,28
			C60,47.465,47.464,60.002,32,60.002z"/>
	</g>
</g>
<g id="Pause">
	<g>
		<path style="fill-rule:evenodd;clip-rule:evenodd;fill:#48A0DC;" d="M28,22c-1.104,0-2,0.896-2,2.001v16
			C26,41.104,26.896,42,28,42s2-0.896,2-1.999v-16C30,22.896,29.104,22,28,22z M36,22c-1.104,0-2,0.896-2,2.001v16
			C34,41.104,34.896,42,36,42s2-0.896,2-1.999v-16C38,22.896,37.104,22,36,22z"/>
	</g>
</g>
<g>
</g>
<g>
</g>
<g>
</g>
<g>
</g>
<g>
</g>
<g>
</g>
<g>
</g>
<g>
</g>
<g>
</g>
<g>
</g>
<g>
</g>
<g>
</g>
<g>
</g>
<g>
</g>
<g>
</g>
</svg>
