<?xml version="1.0" encoding="iso-8859-1"?>
<!-- Generator: Adobe Illustrator 16.0.0, SVG Export Plug-In . SVG Version: 6.00 Build 0)  -->
<!DOCTYPE svg PUBLIC "-//W3C//DTD SVG 1.1//EN" "http://www.w3.org/Graphics/SVG/1.1/DTD/svg11.dtd">
<svg version="1.1" id="Layer_1" xmlns="http://www.w3.org/2000/svg" xmlns:xlink="http://www.w3.org/1999/xlink" x="0px" y="0px"
	 width="64px" height="64.001px" viewBox="0 0 64 64.001" style="enable-background:new 0 0 64 64.001;" xml:space="preserve">
<g id="Elipse_87_">
	<g>
		<path style="fill-rule:evenodd;clip-rule:evenodd;fill:#CCCCCC;" d="M32,0C14.327,0,0,14.328,0,32.001s14.327,32,32,32
			s32-14.327,32-32S49.673,0,32,0z M32,60.002c-15.464,0-28-12.537-28-28.001c0-15.465,12.536-28,28-28s28,12.535,28,28
			C60,47.465,47.464,60.002,32,60.002z"/>
	</g>
</g>
<g id="Next">
	<g>
		<path style="fill-rule:evenodd;clip-rule:evenodd;fill:#9B7CAB;" d="M40,21.999c-1.105,0-2,0.896-2,2.001v16c0,1.104,0.895,2,2,2
			c1.104,0,2-0.896,2-2V24C42,22.895,41.104,21.999,40,21.999z M37.008,29.931L25.03,22.327c-0.306-0.189-0.645-0.328-1.03-0.328
			c-1.104,0-2,0.896-2,2.001v16.001C22,41.104,22.896,42,24,42c0.371,0,0.699-0.129,0.998-0.305l12.01-7.623
			c0.648-0.412,0.977-1.168,0.964-1.937c0.006-0.046,0.005-0.089,0.009-0.135c-0.004-0.046-0.003-0.09-0.009-0.135
			C37.984,31.098,37.656,30.341,37.008,29.931z"/>
	</g>
</g>
<g>
</g>
<g>
</g>
<g>
</g>
<g>
</g>
<g>
</g>
<g>
</g>
<g>
</g>
<g>
</g>
<g>
</g>
<g>
</g>
<g>
</g>
<g>
</g>
<g>
</g>
<g>
</g>
<g>
</g>
</svg>
