<?xml version="1.0" encoding="iso-8859-1"?>
<!-- Generator: Adobe Illustrator 16.0.0, SVG Export Plug-In . SVG Version: 6.00 Build 0)  -->
<!DOCTYPE svg PUBLIC "-//W3C//DTD SVG 1.1//EN" "http://www.w3.org/Graphics/SVG/1.1/DTD/svg11.dtd">
<svg version="1.1" id="Layer_1" xmlns="http://www.w3.org/2000/svg" xmlns:xlink="http://www.w3.org/1999/xlink" x="0px" y="0px"
	 width="56px" height="64px" viewBox="0 0 56 64" style="enable-background:new 0 0 56 64;" xml:space="preserve">
<g id="File_62_">
	<g>
		<path style="fill:#48A0DC;" d="M52,0H4C1.791,0,0,1.79,0,4v55.999C0,62.209,1.791,64,4,64h34l18-18V4C56,1.79,54.209,0,52,0z"/>
	</g>
</g>
<g id="Corner_32_">
	<g>
		<path style="fill:#387BA8;" d="M42,46c-2.209,0-4,1.791-4,4v14l18-18H42z"/>
	</g>
</g>
<g id="Play_1_">
	<g>
		<path style="fill-rule:evenodd;clip-rule:evenodd;fill:#FFFFFF;" d="M37.008,23.93l-11.676-7.413
			c-0.291-0.261-0.656-0.435-1.062-0.49c-0.04-0.007-0.081-0.009-0.122-0.012c-0.05-0.004-0.098-0.015-0.148-0.015
			c-0.028,0-0.055,0.007-0.083,0.008c-0.06,0.002-0.118,0.01-0.177,0.018c-0.082,0.011-0.161,0.024-0.238,0.044
			c-0.023,0.006-0.045,0.014-0.068,0.021C22.607,16.335,22,17.093,22,18v16c0,0.902,0.602,1.656,1.423,1.905
			c0.029,0.01,0.058,0.019,0.087,0.027c0.071,0.018,0.144,0.03,0.218,0.04c0.065,0.009,0.131,0.018,0.197,0.02
			C23.95,35.993,23.975,36,24,36c0.046,0,0.09-0.011,0.135-0.014c0.048-0.004,0.095-0.007,0.143-0.014
			c0.4-0.056,0.762-0.229,1.049-0.486l11.682-7.415c0.687-0.436,1.041-1.256,0.98-2.071C38.049,25.186,37.694,24.366,37.008,23.93z
			 M26,21.98l6.332,4.021L26,30.02V21.98z"/>
	</g>
</g>
<g>
</g>
<g>
</g>
<g>
</g>
<g>
</g>
<g>
</g>
<g>
</g>
<g>
</g>
<g>
</g>
<g>
</g>
<g>
</g>
<g>
</g>
<g>
</g>
<g>
</g>
<g>
</g>
<g>
</g>
</svg>
