<?xml version="1.0" encoding="iso-8859-1"?>
<!-- Generator: Adobe Illustrator 16.0.0, SVG Export Plug-In . SVG Version: 6.00 Build 0)  -->
<!DOCTYPE svg PUBLIC "-//W3C//DTD SVG 1.1//EN" "http://www.w3.org/Graphics/SVG/1.1/DTD/svg11.dtd">
<svg version="1.1" id="Layer_1" xmlns="http://www.w3.org/2000/svg" xmlns:xlink="http://www.w3.org/1999/xlink" x="0px" y="0px"
	 width="64px" height="46px" viewBox="0 0 64 46" style="enable-background:new 0 0 64 46;" xml:space="preserve">
<g id="Cloud_2_">
	<g>
		<path style="fill-rule:evenodd;clip-rule:evenodd;fill:#88C057;" d="M53.952,18.6c0.007-0.203,0.03-0.401,0.03-0.606
			C53.982,8.056,45.922,0,35.978,0c-7.438,0-13.82,4.509-16.565,10.941c-1.352-0.594-2.842-0.929-4.412-0.929
			c-6.07,0-10.992,4.926-10.992,11.001c0,0.387,0.021,0.769,0.06,1.145C1.555,24.686,0,28.167,0,32.013C0,39.738,6.266,46,13.995,46
			c0.011,0,0.021-0.001,0.031-0.001V46h35.947v-0.001c0.01,0,0.021,0.001,0.03,0.001C57.733,46,64,39.738,64,32.013
			C64,25.659,59.758,20.304,53.952,18.6z"/>
	</g>
</g>
<g id="Ok_1_">
	<g>
		<path style="fill-rule:evenodd;clip-rule:evenodd;fill:#FFFFFF;" d="M41.393,20.568c-0.788-0.79-2.065-0.79-2.854,0l-8.521,8.52
			l-4.509-4.516c-0.807-0.809-2.114-0.809-2.921,0s-0.807,2.117,0,2.926l5.841,5.851c0.207,0.208,0.448,0.36,0.705,0.461
			c0.746,0.344,1.656,0.215,2.271-0.399l9.988-9.988C42.181,22.634,42.181,21.355,41.393,20.568z"/>
	</g>
</g>
<g>
</g>
<g>
</g>
<g>
</g>
<g>
</g>
<g>
</g>
<g>
</g>
<g>
</g>
<g>
</g>
<g>
</g>
<g>
</g>
<g>
</g>
<g>
</g>
<g>
</g>
<g>
</g>
<g>
</g>
</svg>
