<?xml version="1.0" encoding="iso-8859-1"?>
<!-- Generator: Adobe Illustrator 16.0.0, SVG Export Plug-In . SVG Version: 6.00 Build 0)  -->
<!DOCTYPE svg PUBLIC "-//W3C//DTD SVG 1.1//EN" "http://www.w3.org/Graphics/SVG/1.1/DTD/svg11.dtd">
<svg version="1.1" id="Layer_1" xmlns="http://www.w3.org/2000/svg" xmlns:xlink="http://www.w3.org/1999/xlink" x="0px" y="0px"
	 width="64px" height="44px" viewBox="0 0 64 44" style="enable-background:new 0 0 64 44;" xml:space="preserve">
<g id="Base_1_">
	<g>
		<path style="fill:#999999;" d="M32,0C14.327,0,0,17.768,0,21.999C0,26.028,14.327,44,32,44c17.673,0,32-18.073,32-22.001
			C64,17.984,49.673,0,32,0z"/>
	</g>
</g>
<g id="Container_1_">
	<g>
		<path style="fill:#FFFFFF;" d="M32,6C18.824,6,8.021,20.175,8.021,21.999c0,1.751,10.802,16,23.979,16s23.979-14.249,23.979-16
			C55.979,20.182,45.176,6,32,6z"/>
	</g>
</g>
<g id="Eye_2_">
	<g>
		<path style="fill:#48A0DC;" d="M47.517,12.159C43.324,8.852,37.905,6,32,6s-11.323,2.85-15.516,6.156
			C16.179,13.39,16,14.672,16,16c0,8.837,7.164,15.999,16,15.999S48,24.837,48,16C48,14.673,47.821,13.392,47.517,12.159z"/>
	</g>
</g>
<g id="Highlight">
	<g>
		<path style="fill:#FFFFFF;" d="M28.873,22.552c-0.095-0.355-0.302-0.637-0.546-0.879l0.042-0.042C26.916,20.19,26,18.212,26,16
			v-0.001c0-1.104-0.896-2-2-2c-1.105,0-2,0.896-2,2V16c0,3.144,1.266,5.942,3.249,8.07c0.446,0.752,1.324,1.169,2.21,0.931
			C28.526,24.716,29.159,23.618,28.873,22.552z"/>
	</g>
</g>
<g>
</g>
<g>
</g>
<g>
</g>
<g>
</g>
<g>
</g>
<g>
</g>
<g>
</g>
<g>
</g>
<g>
</g>
<g>
</g>
<g>
</g>
<g>
</g>
<g>
</g>
<g>
</g>
<g>
</g>
</svg>
