<?xml version="1.0" encoding="iso-8859-1"?>
<!-- Generator: Adobe Illustrator 16.0.0, SVG Export Plug-In . SVG Version: 6.00 Build 0)  -->
<!DOCTYPE svg PUBLIC "-//W3C//DTD SVG 1.1//EN" "http://www.w3.org/Graphics/SVG/1.1/DTD/svg11.dtd">
<svg version="1.1" id="Layer_1" xmlns="http://www.w3.org/2000/svg" xmlns:xlink="http://www.w3.org/1999/xlink" x="0px" y="0px"
	 width="63.999px" height="64px" viewBox="0 0 63.999 64" style="enable-background:new 0 0 63.999 64;" xml:space="preserve">
<g id="Grid_8_">
	<g>
		<path style="fill-rule:evenodd;clip-rule:evenodd;fill:#88C057;" d="M60,0h-8c-2.21,0-4,1.791-4,4.001v8c0,2.209,1.79,4,4,4h8
			c2.209,0,3.999-1.791,3.999-4v-8C63.999,1.791,62.209,0,60,0z M36,0h-8.001C25.79,0,24,1.791,24,4.001v8c0,2.209,1.79,4,3.999,4
			H36c2.209,0,3.999-1.791,3.999-4v-8C39.999,1.791,38.209,0,36,0z M12,0H3.999C1.79,0,0,1.791,0,4.001v8c0,2.209,1.79,4,3.999,4H12
			c2.209,0,4-1.791,4-4v-8C16,1.791,14.209,0,12,0z M60,24.001h-8c-2.21,0-4,1.79-4,3.999v8c0,2.209,1.79,4.001,4,4.001h8
			c2.209,0,3.999-1.792,3.999-4.001v-8C63.999,25.791,62.209,24.001,60,24.001z M36,24.001h-8.001C25.79,24.001,24,25.791,24,28v8
			c0,2.209,1.79,4.001,3.999,4.001H36c2.209,0,3.999-1.792,3.999-4.001v-8C39.999,25.791,38.209,24.001,36,24.001z M12,24.001H3.999
			C1.79,24.001,0,25.791,0,28v8c0,2.209,1.79,4.001,3.999,4.001H12c2.209,0,4-1.792,4-4.001v-8C16,25.791,14.209,24.001,12,24.001z
			 M60,48h-8c-2.21,0-4,1.791-4,4.001v8C48,62.21,49.79,64,52,64h8c2.209,0,3.999-1.79,3.999-3.999v-8
			C63.999,49.791,62.209,48,60,48z M36,48h-8.001C25.79,48,24,49.791,24,52.001v8C24,62.21,25.79,64,27.999,64H36
			c2.209,0,3.999-1.79,3.999-3.999v-8C39.999,49.791,38.209,48,36,48z M12,48H3.999C1.79,48,0,49.791,0,52.001v8
			C0,62.21,1.79,64,3.999,64H12c2.209,0,4-1.79,4-3.999v-8C16,49.791,14.209,48,12,48z"/>
	</g>
</g>
<g>
</g>
<g>
</g>
<g>
</g>
<g>
</g>
<g>
</g>
<g>
</g>
<g>
</g>
<g>
</g>
<g>
</g>
<g>
</g>
<g>
</g>
<g>
</g>
<g>
</g>
<g>
</g>
<g>
</g>
</svg>
