<?xml version="1.0" encoding="iso-8859-1"?>
<!-- Generator: Adobe Illustrator 16.0.0, SVG Export Plug-In . SVG Version: 6.00 Build 0)  -->
<!DOCTYPE svg PUBLIC "-//W3C//DTD SVG 1.1//EN" "http://www.w3.org/Graphics/SVG/1.1/DTD/svg11.dtd">
<svg version="1.1" id="Layer_1" xmlns="http://www.w3.org/2000/svg" xmlns:xlink="http://www.w3.org/1999/xlink" x="0px" y="0px"
	 width="64px" height="64px" viewBox="0 0 64 64" style="enable-background:new 0 0 64 64;" xml:space="preserve">
<g id="Command">
	<g>
		<path style="fill-rule:evenodd;clip-rule:evenodd;fill:#CCCCCC;" d="M50,36c-0.083,0-0.163,0.013-0.246,0.014
			C49.678,36.006,49.595,36,49.5,36H44v-8h2.999c0.337,0,0.655-0.068,0.957-0.17C48.625,27.93,49.303,28,50,28
			c7.731,0,14-6.268,14-14.001C64,6.269,57.731,0,50,0c-7.732,0-14,6.269-14,13.999c0,0.225,0.023,0.444,0.033,0.667
			C36.021,14.777,36,14.886,36,15v5h-8v-5c0-0.114-0.021-0.223-0.033-0.334C27.977,14.443,28,14.224,28,13.999
			C28,6.269,21.731,0,14,0C6.268,0,0,6.269,0,13.999C0,21.732,6.268,28,14,28c0.215,0,0.424-0.027,0.637-0.037
			C14.757,27.978,14.875,28,15,28h5v8h-6.5c-0.155,0-0.28,0.023-0.405,0.046C5.786,36.515,0,42.573,0,50c0,7.732,6.268,14,14,14
			c7.731,0,14-6.268,14-14c0-0.225-0.023-0.444-0.033-0.667C27.979,49.222,28,49.113,28,48.999V44h8v4.999
			c0,0.114,0.021,0.223,0.033,0.334C36.023,49.556,36,49.775,36,50c0,7.732,6.268,14,14,14c7.731,0,14-6.268,14-14S57.731,36,50,36z
			 M44,14.5h0.029c-0.014-0.166-0.025-0.332-0.025-0.501c0-3.311,2.685-5.994,5.996-5.994c3.311,0,5.995,2.684,5.995,5.994
			c0,3.313-2.685,5.997-5.995,5.997V20h-6V14.5z M14,20v-0.004c-3.312,0-5.996-2.685-5.996-5.997c0-3.311,2.685-5.994,5.996-5.994
			c3.311,0,5.995,2.684,5.995,5.994c0,0.169-0.012,0.335-0.025,0.501H20V20H14z M20,48.833l-0.121-0.007
			c0.075,0.379,0.116,0.771,0.116,1.173c0,3.312-2.685,5.996-5.995,5.996c-3.312,0-5.996-2.685-5.996-5.996s2.685-5.995,5.996-5.995
			V44h6V48.833z M28,36v-8h8v8H28z M50,55.996c-3.312,0-5.996-2.685-5.996-5.996H44v-6h6v0.005c3.311,0,5.995,2.684,5.995,5.995
			S53.311,55.996,50,55.996z"/>
	</g>
</g>
<g>
</g>
<g>
</g>
<g>
</g>
<g>
</g>
<g>
</g>
<g>
</g>
<g>
</g>
<g>
</g>
<g>
</g>
<g>
</g>
<g>
</g>
<g>
</g>
<g>
</g>
<g>
</g>
<g>
</g>
</svg>
