<?xml version="1.0" encoding="iso-8859-1"?>
<!DOCTYPE svg PUBLIC "-//W3C//DTD SVG 1.1//EN" "http://www.w3.org/Graphics/SVG/1.1/DTD/svg11.dtd">
<svg version="1.1" id="Layer_1" xmlns="http://www.w3.org/2000/svg" xmlns:xlink="http://www.w3.org/1999/xlink" x="0px" y="0px"
	 width="64px" height="64px" viewBox="0 0 64 64" style="enable-background:new 0 0 64 64;" xml:space="preserve">
<g id="Elipse_31_">
	<g>
		<path style="fill-rule:evenodd;clip-rule:evenodd;fill:#96CCFF;" d="M32,0C14.327,0,0,14.327,0,32.001C0,49.674,14.327,64,32,64
			s32-14.326,32-31.999C64,14.327,49.673,0,32,0z M32,60C16.536,60,4,47.465,4,32.001s12.536-28,28-28s28,12.536,28,28
			S47.464,60,32,60z"/>
	</g>
</g>
<g id="Contrast">
	<g>
		<path style="fill-rule:evenodd;clip-rule:evenodd;fill:#9B7CAB;" d="M32,18.001c-7.732,0-14,6.269-14,14c0,7.732,6.268,14,14,14
			c7.731,0,14-6.268,14-14C46,24.27,39.731,18.001,32,18.001z M32,42V22.002c5.522,0,9.999,4.477,9.999,9.999S37.522,42,32,42z"/>
	</g>
</g>
<g>
</g>
<g>
</g>
<g>
</g>
<g>
</g>
<g>
</g>
<g>
</g>
<g>
</g>
<g>
</g>
<g>
</g>
<g>
</g>
<g>
</g>
<g>
</g>
<g>
</g>
<g>
</g>
<g>
</g>
</svg>
