<?xml version="1.0" encoding="utf-8"?>
<svg version="1.1" id="Layer_1" height="64px" width="64px" xmlns="http://www.w3.org/2000/svg" xmlns:xlink="http://www.w3.org/1999/xlink" x="0px" y="0px"
	 viewBox="0 0 32 32" style="enable-background:new 0 0 32 32;" xml:space="preserve">
<style type="text/css">
	.st0{fill-rule:evenodd;clip-rule:evenodd;fill:#96CCFF;}
	.st1{fill:#4CA0D8;}
	.st2{fill:#88C057;}
	.st3{fill:#ED7161;}
</style>
<g id="Elipse_30_">
	<g id="XMLID_45_">
		<path id="XMLID_46_" class="st0" d="M16,0C7.2,0,0,7.2,0,16c0,8.8,7.2,16,16,16c8.8,0,16-7.2,16-16C32,7.2,24.8,0,16,0z M16,30
			C8.3,30,2,23.7,2,16C2,8.3,8.3,2,16,2c7.7,0,14,6.3,14,14C30,23.7,23.7,30,16,30z"/>
	</g>
</g>
<g id="Blue">
	<g id="XMLID_50_">
		<circle id="XMLID_51_" class="st1" cx="13.4" cy="18.6" r="4.4"/>
	</g>
</g>
<g id="Green">
	<g id="XMLID_52_">
		<circle id="XMLID_53_" class="st2" cx="18.6" cy="18.6" r="4.4"/>
	</g>
</g>
<g id="Red">
	<g id="XMLID_54_">
		<circle id="XMLID_56_" class="st3" cx="16" cy="13.4" r="4.4"/>
	</g>
</g>
</svg>
