<?xml version="1.0" encoding="iso-8859-1"?>
<!-- Generator: Adobe Illustrator 16.0.0, SVG Export Plug-In . SVG Version: 6.00 Build 0)  -->
<!DOCTYPE svg PUBLIC "-//W3C//DTD SVG 1.1//EN" "http://www.w3.org/Graphics/SVG/1.1/DTD/svg11.dtd">
<svg version="1.1" id="Layer_1" xmlns="http://www.w3.org/2000/svg" xmlns:xlink="http://www.w3.org/1999/xlink" x="0px" y="0px"
	 width="63.971px" height="64.033px" viewBox="0 0 63.971 64.033" style="enable-background:new 0 0 63.971 64.033;"
	 xml:space="preserve">
<g id="Nib">
	<g>
		<path style="fill-rule:evenodd;clip-rule:evenodd;fill:#999999;" d="M26,28.033l-14,1.999l-12,32L16.373,45.66
			c-0.225-0.5-0.357-1.05-0.357-1.633c0-2.203,1.786-3.989,3.99-3.989c2.203,0,3.989,1.786,3.989,3.989s-1.787,3.989-3.989,3.989
			c-0.583,0-1.133-0.132-1.633-0.356L2,64.033l32-12l2-14.001L26,28.033z"/>
	</g>
</g>
<g id="Ring">
	<g>
		
			<rect x="30.172" y="21.133" transform="matrix(0.7071 -0.7071 0.7071 0.7071 -12.2785 32.421)" style="fill:#333333;" width="5.656" height="19.8"/>
	</g>
</g>
<g id="Barrel">
	<g>
		<path style="fill:#666666;" d="M63.384,17.585L46.385,0.587c-0.782-0.782-2.051-0.782-2.833,0L26.553,19.585
			c-0.782,0.782-0.782,2.05,0,2.833l14.999,14.998c0.782,0.783,2.051,0.783,2.833,0l18.999-16.998
			C64.166,19.635,64.166,18.367,63.384,17.585z"/>
	</g>
</g>
<g>
</g>
<g>
</g>
<g>
</g>
<g>
</g>
<g>
</g>
<g>
</g>
<g>
</g>
<g>
</g>
<g>
</g>
<g>
</g>
<g>
</g>
<g>
</g>
<g>
</g>
<g>
</g>
<g>
</g>
</svg>
