<?xml version="1.0" encoding="iso-8859-1"?>
<!-- Generator: Adobe Illustrator 16.0.0, SVG Export Plug-In . SVG Version: 6.00 Build 0)  -->
<!DOCTYPE svg PUBLIC "-//W3C//DTD SVG 1.1//EN" "http://www.w3.org/Graphics/SVG/1.1/DTD/svg11.dtd">
<svg version="1.1" id="Layer_1" xmlns="http://www.w3.org/2000/svg" xmlns:xlink="http://www.w3.org/1999/xlink" x="0px" y="0px"
	 width="64.02px" height="63.989px" viewBox="0 0 64.02 63.989" style="enable-background:new 0 0 64.02 63.989;"
	 xml:space="preserve">
<g id="Wood">
	<g>
		<polygon style="fill:#E6E6E6;" points="27.986,12.04 7.996,32.02 0,63.989 31.984,55.997 51.975,36.016 		"/>
	</g>
</g>
<g id="Lead">
	<g>
		<path style="fill:#666666;" d="M3.383,50.462L0,63.989l13.533-3.383C12.286,55.614,8.379,51.708,3.383,50.462z"/>
	</g>
</g>
<g id="Body_1_">
	<g>
		<path style="fill-rule:evenodd;clip-rule:evenodd;fill:#FFCC66;" d="M32.527,55.455l-0.542,0.542
			C31.984,55.997,32.259,55.802,32.527,55.455z M49.976,26.026L37.981,14.037l-5.997-5.993L8.539,31.477
			c0.668-0.516,1.906-1.005,3.455,0.543c2.354,2.354,1.999,5.995,1.999,5.995s5.642,1.643,7.996,3.996
			c2.354,2.353,3.998,7.991,3.998,7.991s3.643-0.354,5.997,1.999c1.549,1.549,1.059,2.786,0.542,3.454L55.973,32.02L49.976,26.026z
			 M7.996,32.02l0.543-0.543C8.192,31.745,7.996,32.02,7.996,32.02z"/>
	</g>
</g>
<g id="Ellipse_1">
	<g>
		<path style="fill:#ED7161;" d="M58.992,5.025c-6.637-6.633-17.534-6.769-24.03,0c-0.979,1.021-2.978,3.019-2.978,3.019
			L55.973,32.02c0,0,1.999-1.997,3.02-2.976C65.765,22.551,65.627,11.658,58.992,5.025z"/>
	</g>
</g>
<g id="Ferrule">
	<g>
		<path style="fill:#E6E6E6;" d="M57.528,29.921L34.084,6.488c-0.781-0.779-2.047-0.779-2.827,0l-0.828,0.827
			c-0.78,0.781-0.78,2.046,0,2.826l23.444,23.433c0.78,0.781,2.047,0.781,2.827,0l0.828-0.827
			C58.309,31.968,58.309,30.702,57.528,29.921z"/>
	</g>
</g>
<g>
</g>
<g>
</g>
<g>
</g>
<g>
</g>
<g>
</g>
<g>
</g>
<g>
</g>
<g>
</g>
<g>
</g>
<g>
</g>
<g>
</g>
<g>
</g>
<g>
</g>
<g>
</g>
<g>
</g>
</svg>
