<?xml version="1.0" encoding="iso-8859-1"?>
<!-- Generator: Adobe Illustrator 16.0.0, SVG Export Plug-In . SVG Version: 6.00 Build 0)  -->
<!DOCTYPE svg PUBLIC "-//W3C//DTD SVG 1.1//EN" "http://www.w3.org/Graphics/SVG/1.1/DTD/svg11.dtd">
<svg version="1.1" id="Layer_1" xmlns="http://www.w3.org/2000/svg" xmlns:xlink="http://www.w3.org/1999/xlink" x="0px" y="0px"
	 width="64px" height="63.998px" viewBox="0 0 64 63.998" style="enable-background:new 0 0 64 63.998;" xml:space="preserve">
<g id="Elipse_5_">
	<g>
		<path style="fill:#88C057;" d="M32,0C14.327,0,0,14.322,0,31.999c0,17.669,14.327,31.999,32,31.999s32-14.33,32-31.999
			C64,14.322,49.673,0,32,0z"/>
	</g>
</g>
<g id="OK">
	<g>
		<path style="fill-rule:evenodd;clip-rule:evenodd;fill:#FFFFFF;" d="M45.428,22.571c-0.776-0.775-2.033-0.775-2.81,0
			L28.001,37.189l-6.618-6.618c-0.775-0.775-2.033-0.775-2.809,0c-0.776,0.775-0.776,2.033,0,2.81l7.803,7.803
			c0.061,0.083,0.122,0.166,0.197,0.241c0.394,0.394,0.911,0.586,1.427,0.58c0.516,0.006,1.033-0.187,1.427-0.58
			c0.076-0.076,0.139-0.161,0.2-0.245l15.8-15.8C46.203,24.605,46.203,23.347,45.428,22.571z"/>
	</g>
</g>
<g>
</g>
<g>
</g>
<g>
</g>
<g>
</g>
<g>
</g>
<g>
</g>
<g>
</g>
<g>
</g>
<g>
</g>
<g>
</g>
<g>
</g>
<g>
</g>
<g>
</g>
<g>
</g>
<g>
</g>
</svg>
