<?xml version="1.0" encoding="iso-8859-1"?>
<!-- Generator: Adobe Illustrator 16.0.0, SVG Export Plug-In . SVG Version: 6.00 Build 0)  -->
<!DOCTYPE svg PUBLIC "-//W3C//DTD SVG 1.1//EN" "http://www.w3.org/Graphics/SVG/1.1/DTD/svg11.dtd">
<svg version="1.1" id="Layer_1" xmlns="http://www.w3.org/2000/svg" xmlns:xlink="http://www.w3.org/1999/xlink" x="0px" y="0px"
	 width="60.015px" height="63.961px" viewBox="0 0 60.015 63.961" style="enable-background:new 0 0 60.015 63.961;"
	 xml:space="preserve">
<g id="Stars">
	<g>
		<path style="fill-rule:evenodd;clip-rule:evenodd;fill:#FFCC66;" d="M52.075,0.002c-0.529,4.805-3.176,7.477-7.94,8.011
			c4.764,0.533,7.411,3.205,7.94,8.01c0.529-4.805,3.176-7.477,7.939-8.01C55.251,7.479,52.604,4.807,52.075,0.002z M16.104,13.996
			c-0.402,3.604-2.415,5.607-6.038,6.009c3.623,0.399,5.635,2.402,6.038,6.007c0.403-3.604,2.415-5.607,6.037-6.007
			C18.519,19.604,16.507,17.6,16.104,13.996z M28.267,0c-0.397,3.603-2.383,5.607-5.958,6.008c3.575,0.4,5.561,2.404,5.958,6.008
			c0.397-3.604,2.383-5.607,5.958-6.008C30.65,5.607,28.664,3.603,28.267,0z"/>
	</g>
</g>
<g id="Stick">
	<g>
		<path style="fill:#CCCCCC;" d="M46.606,18.188c-1.577-1.547-4.134-1.547-5.711,0L1.183,57.2c-1.577,1.547-1.577,4.055,0,5.601
			c1.577,1.547,4.134,1.547,5.712,0l39.711-39.013C48.183,22.242,48.183,19.733,46.606,18.188z"/>
	</g>
</g>
<g id="Stick_1_">
	<g>
		<path style="fill-rule:evenodd;clip-rule:evenodd;fill:#4D4D4D;" d="M36.612,22.395L1.183,57.2c-1.577,1.547-1.577,4.055,0,5.601
			c1.577,1.547,4.134,1.547,5.712,0l35.471-34.847L36.612,22.395z"/>
	</g>
</g>
<g>
</g>
<g>
</g>
<g>
</g>
<g>
</g>
<g>
</g>
<g>
</g>
<g>
</g>
<g>
</g>
<g>
</g>
<g>
</g>
<g>
</g>
<g>
</g>
<g>
</g>
<g>
</g>
<g>
</g>
</svg>
