<?xml version="1.0" encoding="iso-8859-1"?>
<!-- Generator: Adobe Illustrator 16.0.0, SVG Export Plug-In . SVG Version: 6.00 Build 0)  -->
<!DOCTYPE svg PUBLIC "-//W3C//DTD SVG 1.1//EN" "http://www.w3.org/Graphics/SVG/1.1/DTD/svg11.dtd">
<svg version="1.1" id="Layer_1" xmlns="http://www.w3.org/2000/svg" xmlns:xlink="http://www.w3.org/1999/xlink" x="0px" y="0px"
	 width="64.001px" height="56px" viewBox="0 0 64.001 56" style="enable-background:new 0 0 64.001 56;" xml:space="preserve">
<g id="Piggy">
	<g>
		<path style="fill:#FFA8D1;" d="M64.001,21c0-1.656-1.344-2.999-3-2.999c-0.641,0-1.2,0.244-1.688,0.585
			C56.115,14.9,50.804,12,42.001,12c-10.485,0-18,6.001-18,6.001s-6.885-7.116-10-4c1.99,1.99,2.222,6.963,2.222,6.963
			s-3.56,1.443-6.222,5.037C7.729,29.066,0,28.339,0,32.815C0,39.186,13.251,48,24.001,48l2,6.001c0,1.104,0.895,1.999,2,1.999h6
			c1.104,0,2-0.895,2-1.999l2-6.001h8l2,6.001c0,1.104,0.895,1.999,2,1.999h6c1.104,0,2-0.895,2-1.999c0,0,0,0,4-12
			c1.135-3.405,2-6.975,2-10c0-1.941-0.303-5.119-1.626-8.376C63.329,23.124,64.001,22.153,64.001,21z"/>
	</g>
</g>
<g id="Eye">
	<g>
		<circle style="fill:#CC5E91;" cx="15.957" cy="28.021" r="1.996"/>
	</g>
</g>
<g id="Slot_7_">
	<g>
		<path style="fill:#CC5E91;" d="M48.394,14.687c-4.2-0.917-8.58-0.917-12.78,0c-1.175,0.256-1.844,1.252-1.517,2.125
			c0.328,0.875,1.381,1.341,2.372,1.127c3.638-0.795,7.432-0.795,11.069,0c0.991,0.214,2.045-0.252,2.372-1.127
			C50.237,15.938,49.568,14.942,48.394,14.687z"/>
	</g>
</g>
<g id="Penny">
	<g>
		<circle style="fill:#FFCC66;" cx="42.001" cy="8" r="8"/>
	</g>
</g>
<g id="Ellipse_42_">
	<g>
		<circle style="fill:#CCA352;" cx="42.001" cy="8.001" r="4"/>
	</g>
</g>
<g>
</g>
<g>
</g>
<g>
</g>
<g>
</g>
<g>
</g>
<g>
</g>
<g>
</g>
<g>
</g>
<g>
</g>
<g>
</g>
<g>
</g>
<g>
</g>
<g>
</g>
<g>
</g>
<g>
</g>
</svg>
