<?xml version="1.0" encoding="iso-8859-1"?>
<!-- Generator: Adobe Illustrator 16.0.0, SVG Export Plug-In . SVG Version: 6.00 Build 0)  -->
<!DOCTYPE svg PUBLIC "-//W3C//DTD SVG 1.1//EN" "http://www.w3.org/Graphics/SVG/1.1/DTD/svg11.dtd">
<svg version="1.1" id="Layer_1" xmlns="http://www.w3.org/2000/svg" xmlns:xlink="http://www.w3.org/1999/xlink" x="0px" y="0px"
	 width="64.006px" height="43.984px" viewBox="0 0 64.006 43.984" style="enable-background:new 0 0 64.006 43.984;"
	 xml:space="preserve">
<g id="Body_38_">
	<g>
		<path style="fill:#808080;" d="M60.307,0.002C60.303,0.002,60.3,0,60.296,0H3.71C3.707,0,3.703,0.002,3.699,0.002
			C1.655,0.009,0,1.613,0,3.595v36.681c0,2.048,1.661,3.709,3.71,3.709h56.585c2.049,0,3.71-1.661,3.71-3.709V3.595
			C64.006,1.613,62.351,0.009,60.307,0.002z"/>
	</g>
</g>
<g id="Container">
	<g>
		<rect x="6.006" y="5.997" style="fill:#FFFFFF;" width="52" height="32.001"/>
	</g>
</g>
<g id="Picture">
	<g>
		<polygon style="fill:#75A64B;" points="36.013,15.928 30.001,26.041 23.99,19.973 15.974,32.107 48.037,32.107 		"/>
	</g>
</g>
<g id="Sun">
	<g>
		<ellipse style="fill:#FFCC66;" cx="18.992" cy="14.905" rx="3.018" ry="3.046"/>
	</g>
</g>
<g>
</g>
<g>
</g>
<g>
</g>
<g>
</g>
<g>
</g>
<g>
</g>
<g>
</g>
<g>
</g>
<g>
</g>
<g>
</g>
<g>
</g>
<g>
</g>
<g>
</g>
<g>
</g>
<g>
</g>
</svg>
