<?xml version="1.0" encoding="iso-8859-1"?>
<!DOCTYPE svg PUBLIC "-//W3C//DTD SVG 1.1//EN" "http://www.w3.org/Graphics/SVG/1.1/DTD/svg11.dtd">
<svg version="1.1" id="Layer_1" xmlns="http://www.w3.org/2000/svg" xmlns:xlink="http://www.w3.org/1999/xlink" x="0px" y="0px"
	 width="64px" height="64px" viewBox="0 0 64 64" style="enable-background:new 0 0 64 63.998;" xml:space="preserve">
<g id="Elipse_7_">
	<g>
		<path style="fill:#88C057;" d="M32,0C14.327,0,0,14.322,0,31.999c0,17.669,14.327,31.999,32,31.999s32-14.33,32-31.999
			C64,14.322,49.673,0,32,0z"/>
	</g>
</g>
<g id="Plus_1_">
	<g>
		<path style="fill-rule:evenodd;clip-rule:evenodd;fill:#FFFFFF;" d="M42.001,29.999h-8v-8.001c0-1.104-0.896-2-2-2s-2,0.896-2,2
			v8.001h-8c-1.104,0-2,0.895-2,2c0,1.104,0.896,2,2,2h8v8c0,1.104,0.896,2,2,2s2-0.896,2-2v-8h8c1.104,0,2-0.896,2-2
			C44.001,30.894,43.105,29.999,42.001,29.999z"/>
	</g>
</g>
</svg>
