<?xml version="1.0" encoding="iso-8859-1"?>
<!-- Generator: Adobe Illustrator 16.0.0, SVG Export Plug-In . SVG Version: 6.00 Build 0)  -->
<!DOCTYPE svg PUBLIC "-//W3C//DTD SVG 1.1//EN" "http://www.w3.org/Graphics/SVG/1.1/DTD/svg11.dtd">
<svg version="1.1" id="Layer_1" xmlns="http://www.w3.org/2000/svg" xmlns:xlink="http://www.w3.org/1999/xlink" x="0px" y="0px"
	 width="64px" height="64px" viewBox="0 0 64 64" style="enable-background:new 0 0 64 64;" xml:space="preserve">
<g id="Elipse_45_">
	<g>
		<path style="fill-rule:evenodd;clip-rule:evenodd;fill:#CCCCCC;" d="M32,0C14.327,0,0,14.327,0,32c0,17.672,14.327,32,32,32
			s32-14.328,32-32C64,14.327,49.673,0,32,0z M32,60C16.536,60,4,47.464,4,32C4,16.537,16.536,3.999,32,3.999S60,16.537,60,32
			C60,47.464,47.464,60,32,60z"/>
	</g>
</g>
<g id="Plus_1_">
	<g>
		<path style="fill-rule:evenodd;clip-rule:evenodd;fill:#88C057;" d="M40,29.999h-6V24c0-1.104-0.896-1.999-2-1.999
			S30,22.896,30,24v5.999h-6c-1.104,0-2,0.896-2,2.001c0,1.104,0.896,2,2,2h6v6c0,1.105,0.896,2.001,2,2.001s2-0.896,2-2.001v-6h6
			c1.105,0,2.001-0.896,2.001-2C42.001,30.895,41.105,29.999,40,29.999z"/>
	</g>
</g>
<g>
</g>
<g>
</g>
<g>
</g>
<g>
</g>
<g>
</g>
<g>
</g>
<g>
</g>
<g>
</g>
<g>
</g>
<g>
</g>
<g>
</g>
<g>
</g>
<g>
</g>
<g>
</g>
<g>
</g>
</svg>
