<?xml version="1.0" encoding="utf-8"?>
<!-- Generator: Adobe Illustrator 19.0.0, SVG Export Plug-In . SVG Version: 6.00 Build 0)  -->
<svg version="1.1" id="Layer_1" xmlns="http://www.w3.org/2000/svg" xmlns:xlink="http://www.w3.org/1999/xlink" x="0px" y="0px"
	 viewBox="-223 225 64 64" style="enable-background:new -223 225 64 64;" xml:space="preserve">
<style type="text/css">
	.st0{fill:#CCCCCC;}
	.st1{fill:#ED7161;}
</style>
<g id="Dotline">
	<g>
		<path class="st0" d="M-218.5,262.6c-0.2-1.2-0.4-2.4-0.5-3.6c-0.1-1.1-1-2-2.1-1.9c-1.1,0.1-1.9,1-1.9,2.1c0,0,0,0.2,0,0.2
			c0.1,1.3,0.3,2.7,0.6,4.1c0.2,1,1,1.6,2,1.6c0.1,0,0.3,0,0.4,0C-219,264.8-218.3,263.7-218.5,262.6z M-206.5,280.4
			c-1-0.7-2-1.4-2.9-2.2c-0.8-0.7-2.1-0.6-2.8,0.2c-0.7,0.8-0.6,2.1,0.2,2.8c1.1,0.9,2.2,1.8,3.3,2.5c0.3,0.2,0.7,0.3,1.1,0.3
			c0.6,0,1.3-0.3,1.7-0.9C-205.3,282.3-205.6,281-206.5,280.4z M-196.4,284.6c-1.2-0.2-2.4-0.5-3.5-0.9c-1.1-0.4-2.2,0.2-2.5,1.3
			c-0.4,1.1,0.2,2.2,1.3,2.5c1.3,0.4,2.7,0.8,4.1,1.1c0.1,0,0.3,0,0.4,0c0.9,0,1.8-0.7,2-1.6C-194.6,285.8-195.3,284.8-196.4,284.6z
			 M-216.1,269.6c-0.5-1-1.7-1.4-2.7-0.9c-1,0.5-1.4,1.7-0.9,2.7c0.6,1.2,1.3,2.5,2.1,3.6c0.4,0.6,1,0.9,1.7,0.9
			c0.4,0,0.8-0.1,1.1-0.3c0.9-0.6,1.2-1.9,0.5-2.8C-214.9,271.7-215.6,270.6-216.1,269.6z M-164.8,271.9c-0.9-0.6-2.2-0.4-2.8,0.6
			c-0.7,1-1.4,2-2.2,2.9c-0.7,0.8-0.6,2.1,0.2,2.8c0.4,0.3,0.8,0.5,1.3,0.5c0.6,0,1.1-0.2,1.5-0.7c0.9-1.1,1.8-2.2,2.5-3.3
			C-163.7,273.8-163.9,272.6-164.8,271.9z M-185.4,284.5c-1.2,0.2-2.4,0.5-3.6,0.5c0,0,0,0,0,0c-1,0-1.9,0.9-1.9,2c0,1.1,0.9,2,2,2
			c0.1,0,0.1,0,0.2,0c1.4-0.1,2.8-0.3,4.1-0.6c1.1-0.2,1.8-1.3,1.6-2.4C-183.3,285-184.3,284.3-185.4,284.5z M-161.1,260.8
			c-1.1-0.2-2.1,0.5-2.3,1.6c-0.2,1.2-0.5,2.4-0.9,3.5c-0.4,1,0.2,2.2,1.3,2.5c0.2,0.1,0.4,0.1,0.6,0.1c0.8,0,1.6-0.5,1.9-1.4
			c0.4-1.3,0.8-2.7,1.1-4.1C-159.3,262.1-160,261-161.1,260.8z M-175.3,280.3c-1,0.7-2.1,1.3-3.2,1.9c-1,0.5-1.4,1.7-0.9,2.7
			c0.4,0.7,1.1,1.1,1.8,1.1c0.3,0,0.6-0.1,0.9-0.2c1.2-0.6,2.5-1.3,3.6-2.1c0.9-0.6,1.2-1.9,0.5-2.8
			C-173.2,279.9-174.4,279.7-175.3,280.3z"/>
	</g>
</g>
<g id="Arrow_9_">
	<g>
		<path class="st1" d="M-223,251.1c-0.2,1.1,0.5,2.1,1.6,2.3c1.1,0.2,2.1-0.5,2.3-1.6c1.4-7.3,5.5-13.7,11.7-17.9
			c6.2-4.2,13.6-5.8,21-4.4c6.8,1.3,12.6,4.9,16.6,9.9l-3.6-0.4c-1.1-0.1-2.1,0.7-2.2,1.8c-0.1,1.1,0.7,2.1,1.8,2.2l7.9,0.9
			c1.1,0.1,2.1-0.7,2.2-1.8l0.9-7.9c0.1-1.1-0.7-2.1-1.8-2.2c-1.1-0.1-2.1,0.7-2.2,1.8l-0.3,2.8c-4.6-5.5-11.1-9.5-18.7-10.9
			c-8.4-1.6-16.9,0.2-24,5.1C-216.7,235.4-221.4,242.7-223,251.1z"/>
	</g>
</g>
<g id="Center">
	<g>
		<path class="st1" d="M-185,255h-4v-4c0-1.1-0.9-2-2-2s-2,0.9-2,2v4h-4c-1.1,0-2,0.9-2,2c0,1.1,0.9,2,2,2h4v4c0,1.1,0.9,2,2,2
			s2-0.9,2-2v-4h4c1.1,0,2-0.9,2-2C-183,255.9-183.9,255-185,255z"/>
	</g>
</g>
</svg>
