<?xml version="1.0" encoding="iso-8859-1"?>
<!-- Generator: Adobe Illustrator 16.0.0, SVG Export Plug-In . SVG Version: 6.00 Build 0)  -->
<!DOCTYPE svg PUBLIC "-//W3C//DTD SVG 1.1//EN" "http://www.w3.org/Graphics/SVG/1.1/DTD/svg11.dtd">
<svg version="1.1" id="Layer_1" xmlns="http://www.w3.org/2000/svg" xmlns:xlink="http://www.w3.org/1999/xlink" x="0px" y="0px"
	 width="64px" height="63.998px" viewBox="0 0 64 63.998" style="enable-background:new 0 0 64 63.998;" xml:space="preserve">
<g id="Remove">
	<g>
		<path style="fill:#ED7161;" d="M32,0C14.326,0,0,14.322,0,31.999c0,17.669,14.326,31.999,32,31.999c17.672,0,32-14.33,32-31.999
			C64,14.322,49.672,0,32,0z"/>
	</g>
</g>
<g id="Remove_1_">
	<g>
		<path style="fill-rule:evenodd;clip-rule:evenodd;fill:#FFFFFF;" d="M34.809,31.998l6.618-6.618c0.775-0.774,0.775-2.033,0-2.809
			c-0.776-0.775-2.033-0.775-2.81,0L32,29.189l-6.618-6.618c-0.775-0.775-2.033-0.775-2.809,0c-0.776,0.775-0.776,2.034,0,2.809
			l6.618,6.618l-6.618,6.618c-0.776,0.775-0.776,2.033,0,2.809c0.775,0.776,2.033,0.776,2.809,0L32,34.807l6.617,6.618
			c0.776,0.776,2.033,0.776,2.81,0c0.775-0.775,0.775-2.033,0-2.809L34.809,31.998z"/>
	</g>
</g>
<g>
</g>
<g>
</g>
<g>
</g>
<g>
</g>
<g>
</g>
<g>
</g>
<g>
</g>
<g>
</g>
<g>
</g>
<g>
</g>
<g>
</g>
<g>
</g>
<g>
</g>
<g>
</g>
<g>
</g>
</svg>
