<?xml version="1.0" encoding="iso-8859-1"?>
<!-- Generator: Adobe Illustrator 16.0.0, SVG Export Plug-In . SVG Version: 6.00 Build 0)  -->
<!DOCTYPE svg PUBLIC "-//W3C//DTD SVG 1.1//EN" "http://www.w3.org/Graphics/SVG/1.1/DTD/svg11.dtd">
<svg version="1.1" id="Layer_1" xmlns="http://www.w3.org/2000/svg" xmlns:xlink="http://www.w3.org/1999/xlink" x="0px" y="0px"
	 width="64px" height="56px" viewBox="0 0 64 56" style="enable-background:new 0 0 64 56;" xml:space="preserve">
<g id="Pentagon">
	<g>
		<polygon style="fill-rule:evenodd;clip-rule:evenodd;fill:#88C057;" points="38,10.911 38,12 26,12 26,10.911 6.398,44 12,44 
			12,52 52,52 52,44 57.602,44 		"/>
	</g>
</g>
<g id="Container_31_">
	<g>
		<polygon style="fill:#FFFFFF;" points="32,8.703 8.721,48 55.278,48 		"/>
	</g>
</g>
<g id="Anchors">
	<g>
		<path style="fill-rule:evenodd;clip-rule:evenodd;fill:#999999;" d="M0,56h12V44H0V56z M4,48h4v4H4V48z M26,12h12V0H26V12z M30,4
			h4v4h-4V4z M52,44v12h12V44H52z M60,52h-4v-4h4V52z"/>
	</g>
</g>
<g>
</g>
<g>
</g>
<g>
</g>
<g>
</g>
<g>
</g>
<g>
</g>
<g>
</g>
<g>
</g>
<g>
</g>
<g>
</g>
<g>
</g>
<g>
</g>
<g>
</g>
<g>
</g>
<g>
</g>
</svg>
