<?xml version="1.0" encoding="iso-8859-1"?>
<!-- Generator: Adobe Illustrator 16.0.0, SVG Export Plug-In . SVG Version: 6.00 Build 0)  -->
<!DOCTYPE svg PUBLIC "-//W3C//DTD SVG 1.1//EN" "http://www.w3.org/Graphics/SVG/1.1/DTD/svg11.dtd">
<svg version="1.1" id="Layer_1" xmlns="http://www.w3.org/2000/svg" xmlns:xlink="http://www.w3.org/1999/xlink" x="0px" y="0px"
	 width="59.999px" height="60.003px" viewBox="0 0 59.999 60.003" style="enable-background:new 0 0 59.999 60.003;"
	 xml:space="preserve">
<g id="Redo_2_">
	<g>
		<path style="fill-rule:evenodd;clip-rule:evenodd;fill:#48A0DC;" d="M59.999,30.002c0-16.57-13.431-30.001-29.999-30.001
			c-8.697,0-16.522,3.706-22,9.62V4.002C8,1.791,6.209,0,4,0S0,1.791,0,4.002v15.997c0,2.21,1.791,4.002,4,4.002h16
			c2.209,0,4-1.792,4-4.002c0-2.208-1.791-4-4-4h-6.97C17.065,11.114,23.169,8.001,30,8.001c12.15,0,22,9.849,22,22.001
			c0,12.149-9.85,21.999-22,21.999v0.002c-2.209,0-4,1.791-4,4s1.791,4,4,4c0.009,0,0.017-0.003,0.026-0.003
			C46.582,59.986,59.999,46.56,59.999,30.002z"/>
	</g>
</g>
<g>
</g>
<g>
</g>
<g>
</g>
<g>
</g>
<g>
</g>
<g>
</g>
<g>
</g>
<g>
</g>
<g>
</g>
<g>
</g>
<g>
</g>
<g>
</g>
<g>
</g>
<g>
</g>
<g>
</g>
</svg>
