<svg version="1.1" id="Layer_1" xmlns="http://www.w3.org/2000/svg" xmlns:xlink="http://www.w3.org/1999/xlink" x="0px" y="0px" width="64px" height="64px" xml:space="preserve" viewBox="0 0 64 64">
<g id="Plus">
	<g>
		<path d="M56,50h-2v-2c0-1.105-0.895-2.001-2-2.001c-1.104,0-2,0.896-2,2.001v2h-2c-1.104,0-2,0.895-2,2    c0,1.104,0.896,1.998,2,1.998h2v2C50,57.105,50.896,58,52,58c1.105,0,2-0.895,2-2.002v-2h2c1.105,0,2-0.895,2-1.998    C58,50.895,57.105,50,56,50z" style="fill:#ff6300;transform: scale(1.5, 1.5) translate(-19px, -16px);"/>
	</g>
</g>
<g id="Contact_6_">
	<g>
		<path style="fill-rule:evenodd;clip-rule:evenodd;fill:#48A0DC;transform: scale(1.9, 1.9) translate(-19px, -15px);" d="M43.869,38.237c-0.556-3.769-2.862-6.965-6.068-8.739    C39.161,28.063,40,26.132,40,24c0-4.418-3.582-8-8-8c-4.419,0-8,3.582-8,8c0,2.132,0.839,4.063,2.199,5.497    C22.504,31.543,20,35.477,20,39.999v1.438v0.562C20,43.104,20.896,44,22,44h0.75h15.408    C39.535,41.622,41.505,39.638,43.869,38.237z M32,19.999c2.209,0,4,1.791,4,4.001c0,2.209-1.791,4-4,4s-4-1.791-4-4    C28,21.79,29.791,19.999,32,19.999z M32,31.999c4.418,0,8,3.582,8,8H24C24,35.581,27.581,31.999,32,31.999z"/>
	</g>
</g>
</svg>
