<?xml version="1.0" encoding="iso-8859-1"?>
<!-- Generator: Adobe Illustrator 16.0.0, SVG Export Plug-In . SVG Version: 6.00 Build 0)  -->
<!DOCTYPE svg PUBLIC "-//W3C//DTD SVG 1.1//EN" "http://www.w3.org/Graphics/SVG/1.1/DTD/svg11.dtd">
<svg version="1.1" id="Layer_1" xmlns="http://www.w3.org/2000/svg" xmlns:xlink="http://www.w3.org/1999/xlink" x="0px" y="0px"
	 width="64px" height="64.001px" viewBox="0 0 64 64.001" style="enable-background:new 0 0 64 64.001;" xml:space="preserve">
<g id="Base_2_">
	<g>
		<path style="fill:#CCCCCC;" d="M60,0H4C1.791,0,0,1.791,0,4.001V60c0,2.21,1.791,4.001,4,4.001h56c2.209,0,4-1.791,4-4.001V4.001
			C64,1.791,62.209,0,60,0z"/>
	</g>
</g>
<g id="Container_2_">
	<g>
		<path style="fill:#FFFFFF;" d="M58,4.001H6c-1.104,0-2,0.895-2,2V58c0,1.104,0.896,2,2,2h52c1.104,0,2-0.896,2-2V6.001
			C60,4.896,59.104,4.001,58,4.001z"/>
	</g>
</g>
<g id="Transparency">
	<g>
		<path style="fill-rule:evenodd;clip-rule:evenodd;fill:#CCCCCC;" d="M48,8.001h-8v8h8V8.001z M8,8.001v8h8v-8H8z M40,24v-7.999h-8
			V24H40z M56,24v-7.999h-8V24H56z M32,24h-8v8.001h8V24z M40,24v8.001h8V24H40z M24,32.001h-8v8h8V32.001z M32,40.001h8v-8h-8
			V40.001z M56,40.001v-8h-8v8H56z M24,40.001v8h8v-8H24z M40,48.001h8v-8h-8V48.001z M8,40.001v8h8v-8H8z M16,56.001h8v-8h-8
			V56.001z M32,56.001h8v-8h-8V56.001z M8,24v8.001h8V24H8z M56,56.001v-8h-8v8H56z M24,16.001h-8V24h8V16.001z M32,8.001h-8v8h8
			V8.001z"/>
	</g>
</g>
<g>
</g>
<g>
</g>
<g>
</g>
<g>
</g>
<g>
</g>
<g>
</g>
<g>
</g>
<g>
</g>
<g>
</g>
<g>
</g>
<g>
</g>
<g>
</g>
<g>
</g>
<g>
</g>
<g>
</g>
</svg>
