<?xml version="1.0" encoding="iso-8859-1"?>
<!-- Generator: Adobe Illustrator 16.0.0, SVG Export Plug-In . SVG Version: 6.00 Build 0)  -->
<!DOCTYPE svg PUBLIC "-//W3C//DTD SVG 1.1//EN" "http://www.w3.org/Graphics/SVG/1.1/DTD/svg11.dtd">
<svg version="1.1" id="Layer_1" xmlns="http://www.w3.org/2000/svg" xmlns:xlink="http://www.w3.org/1999/xlink" x="0px" y="0px"
	 width="63.99px" height="63.991px" viewBox="0 0 63.99 63.991" style="enable-background:new 0 0 63.99 63.991;"
	 xml:space="preserve">
<g id="Handle_4_">
	<g>
		<path style="fill:#88C057;" d="M62.476,55.162L49.657,42.344l-7.314,7.313l12.819,12.818c2.02,2.021,5.294,2.021,7.313,0
			C64.495,60.456,64.495,57.183,62.476,55.162z"/>
	</g>
</g>
<g id="Frame_4_">
	<g>
		<circle style="fill:#CCCCCC;" cx="27.99" cy="27.99" r="27.99"/>
	</g>
</g>
<g id="Container_72_">
	<g>
		<circle style="fill:#FFFFFF;" cx="27.986" cy="27.986" r="24.013"/>
	</g>
</g>
<g id="Plus">
	<g>
		<path style="fill-rule:evenodd;clip-rule:evenodd;fill:#88C057;" d="M36,26h-6v-5.999c0-1.104-0.896-2-2-2s-2,0.896-2,2V26h-6
			c-1.104,0-2,0.896-2,2.001c0,1.104,0.896,2,2,2h6v6c0,1.105,0.896,2.001,2,2.001s2-0.896,2-2.001v-6h6
			c1.105,0,2.001-0.896,2.001-2C38.001,26.896,37.105,26,36,26z"/>
	</g>
</g>
<g>
</g>
<g>
</g>
<g>
</g>
<g>
</g>
<g>
</g>
<g>
</g>
<g>
</g>
<g>
</g>
<g>
</g>
<g>
</g>
<g>
</g>
<g>
</g>
<g>
</g>
<g>
</g>
<g>
</g>
</svg>
