<?xml version="1.0" encoding="iso-8859-1"?>
<!-- Generator: Adobe Illustrator 16.0.0, SVG Export Plug-In . SVG Version: 6.00 Build 0)  -->
<!DOCTYPE svg PUBLIC "-//W3C//DTD SVG 1.1//EN" "http://www.w3.org/Graphics/SVG/1.1/DTD/svg11.dtd">
<svg version="1.1" id="Layer_1" xmlns="http://www.w3.org/2000/svg" xmlns:xlink="http://www.w3.org/1999/xlink" x="0px" y="0px"
	 width="64px" height="64px" viewBox="0 0 64 64" style="enable-background:new 0 0 64 64;" xml:space="preserve">
<g id="Elipse_30_">
	<g>
		<path style="fill-rule:evenodd;clip-rule:evenodd;fill:#96CCFF;" d="M32,0C14.326,0,0,14.327,0,32.001C0,49.674,14.326,64,32,64
			c17.673,0,32-14.326,32-31.999C64,14.327,49.673,0,32,0z M32,60C16.536,60,4,47.465,4,32.001s12.536-28,28-28s28,12.536,28,28
			S47.464,60,32,60z"/>
	</g>
</g>
<g id="Brightness">
	<g>
		<path style="fill-rule:evenodd;clip-rule:evenodd;fill:#FFCC66;" d="M32,28.001c-2.209,0-4,1.791-4,4s1.791,4,4,4s4-1.791,4-4
			S34.209,28.001,32,28.001z M32,26.002c1.104,0,2-0.896,2-2v-4.001c0-1.104-0.896-2-2-2s-2,0.896-2,2v4.001
			C30,25.105,30.896,26.002,32,26.002z M32,38.001c-1.104,0-2,0.896-2,1.999v4.002c0,1.104,0.896,1.999,2,1.999s2-0.896,2-1.999V40
			C34,38.896,33.104,38.001,32,38.001z M44,30.001h-4c-1.104,0-2,0.896-2,2s0.896,2.001,2,2.001h4c1.104,0,2-0.896,2-2.001
			S45.104,30.001,44,30.001z M26,32.001c0-1.104-0.896-2-2-2h-4c-1.104,0-2,0.896-2,2s0.896,2.001,2,2.001h4
			C25.104,34.002,26,33.105,26,32.001z M39.07,27.759l2.829-2.829c0.781-0.78,0.781-2.048,0-2.828c-0.781-0.781-2.048-0.781-2.829,0
			l-2.828,2.828c-0.781,0.781-0.781,2.047,0,2.829C37.023,28.539,38.29,28.539,39.07,27.759z M24.929,36.244l-2.828,2.828
			c-0.781,0.781-0.781,2.048,0,2.828c0.78,0.781,2.047,0.781,2.828,0l2.828-2.828c0.781-0.781,0.781-2.047,0-2.828
			C26.977,35.463,25.71,35.463,24.929,36.244z M39.07,36.244c-0.78-0.781-2.047-0.781-2.828,0s-0.781,2.047,0,2.828L39.07,41.9
			c0.781,0.781,2.048,0.781,2.829,0c0.781-0.78,0.781-2.047,0-2.828L39.07,36.244z M24.929,27.759c0.781,0.78,2.048,0.78,2.828,0
			c0.781-0.782,0.781-2.048,0-2.829l-2.828-2.828c-0.781-0.781-2.048-0.781-2.828,0c-0.781,0.78-0.781,2.048,0,2.828L24.929,27.759z
			"/>
	</g>
</g>
<g>
</g>
<g>
</g>
<g>
</g>
<g>
</g>
<g>
</g>
<g>
</g>
<g>
</g>
<g>
</g>
<g>
</g>
<g>
</g>
<g>
</g>
<g>
</g>
<g>
</g>
<g>
</g>
<g>
</g>
</svg>
