<?xml version="1.0" encoding="iso-8859-1"?>
<!-- Generator: Adobe Illustrator 16.0.0, SVG Export Plug-In . SVG Version: 6.00 Build 0)  -->
<!DOCTYPE svg PUBLIC "-//W3C//DTD SVG 1.1//EN" "http://www.w3.org/Graphics/SVG/1.1/DTD/svg11.dtd">
<svg version="1.1" id="Layer_1" xmlns="http://www.w3.org/2000/svg" xmlns:xlink="http://www.w3.org/1999/xlink" x="0px" y="0px"
	 width="64px" height="64px" viewBox="0 0 64 64" style="enable-background:new 0 0 64 64;" xml:space="preserve">
<g id="Feather">
	<g>
		<path style="fill:#A67C52;" d="M30,42c-4.23-7.301-4-18-4-18s-10.924,9.67-14,16c-1.574,5.182-5.561,17.561-10,22
			c0,0,13.195-4,22-4c8.043,0,18-10,18-10C35.199,48,30,42,30,42z"/>
	</g>
</g>
<g id="Feather_3_">
	<g>
		<path style="fill:#999999;" d="M44,26c-4.23-7.301-4-16-4-16s-6.924,3.67-10,10c-1.574,5.182-4,24-4,24h18
			c9.688-3.275,14-16,14-16C53.496,30,44,26,44,26z"/>
	</g>
</g>
<g id="Feather_2_">
	<g>
		<path style="fill:#48A0DC;" d="M44,8c-2.523,2.523-4,22-4,22s20.555-5.088,22-10c0.934-3.174,2-12.355,2-20
			C64,0,46.863,5.137,44,8z"/>
	</g>
</g>
<g id="Base_2_">
	<g>
		<path style="fill-rule:evenodd;clip-rule:evenodd;fill:#666666;" d="M1,60.268l0.016,0.027C0.42,60.641,0,61.26,0,62
			c0,1.105,0.895,2,2,2c0.365,0,0.689-0.125,0.984-0.297L3,63.73c0,0,45.139-29.467,61-63.73C41.873,33.064,1,60.268,1,60.268z"/>
	</g>
</g>
<g>
</g>
<g>
</g>
<g>
</g>
<g>
</g>
<g>
</g>
<g>
</g>
<g>
</g>
<g>
</g>
<g>
</g>
<g>
</g>
<g>
</g>
<g>
</g>
<g>
</g>
<g>
</g>
<g>
</g>
</svg>
