<?xml version="1.0" encoding="iso-8859-1"?>
<!-- Generator: Adobe Illustrator 16.0.0, SVG Export Plug-In . SVG Version: 6.00 Build 0)  -->
<!DOCTYPE svg PUBLIC "-//W3C//DTD SVG 1.1//EN" "http://www.w3.org/Graphics/SVG/1.1/DTD/svg11.dtd">
<svg version="1.1" id="Layer_1" xmlns="http://www.w3.org/2000/svg" xmlns:xlink="http://www.w3.org/1999/xlink" x="0px" y="0px"
	 width="56px" height="64px" viewBox="0 0 56 64" style="enable-background:new 0 0 56 64;" xml:space="preserve">
<g id="Collar_5_">
	<g>
		<path style="fill:#BA594C;" d="M36,2c-2-2-4-2-8-2c-4,0-6,0-8,2l-4,4l12,16L40,6L36,2z"/>
	</g>
</g>
<g id="Shirt_3_">
	<g>
		<path style="fill:#ED7161;" d="M46,6c-2-2-6-2-10-4c0,0-4,14-8,14S20,2,20,2C16,4,10,4,8,6s-8,8-8,10c0,0,4,8,6,8s6-4,6-4l2,8
			c0,12-4,26.001-4,30c0,2,4,6,18,6s18-4,18-6c0-3.999-4-18-4-30l2-8c0,0,4,4,6,4c2,0,6-8,6-8C56,14,48,8,46,6z"/>
	</g>
</g>
<g>
</g>
<g>
</g>
<g>
</g>
<g>
</g>
<g>
</g>
<g>
</g>
<g>
</g>
<g>
</g>
<g>
</g>
<g>
</g>
<g>
</g>
<g>
</g>
<g>
</g>
<g>
</g>
<g>
</g>
</svg>
