<?xml version="1.0" encoding="UTF-8" standalone="no"?><!DOCTYPE svg PUBLIC "-//W3C//DTD SVG 1.1//EN" "http://www.w3.org/Graphics/SVG/1.1/DTD/svg11.dtd"><svg width="100%" height="100%" viewBox="0 0 1200 900" version="1.1" xmlns="http://www.w3.org/2000/svg" xmlns:xlink="http://www.w3.org/1999/xlink" xml:space="preserve" xmlns:serif="http://www.serif.com/" style="fill-rule:evenodd;clip-rule:evenodd;"><g><circle cx="575.662" cy="404.623" r="232.967" style="fill:none;"/><clipPath id="_clip1"><circle cx="575.662" cy="404.623" r="232.967"/></clipPath><g clip-path="url(#_clip1)"><path d="M551.044,208.349c-2.232,25.567 7.269,50.763 25.826,68.491c18.556,17.728 44.16,26.069 69.598,22.673" style="fill:none;stroke:#333;stroke-width:1.07px;stroke-dasharray:2.13,2.13,0,0;"/><path d="M471.016,324.801c0,-10.28 2.405,-20.274 6.895,-29.493c5.106,-10.48 12.674,-19.486 21.752,-26.69c17.176,-13.629 39.099,-20.398 60.746,-20.398c21.649,0 43.575,6.771 60.751,20.403c9.077,7.203 16.644,16.208 21.748,26.688c4.489,9.218 6.894,19.211 6.894,29.49c0,10.28 -2.405,20.275 -6.896,29.493c-5.105,10.481 -12.673,19.487 -21.751,26.69c-17.176,13.629 -39.099,20.399 -60.746,20.399c-21.649,0 -43.575,-6.771 -60.751,-20.403c-9.077,-7.204 -16.644,-16.209 -21.748,-26.688c-4.49,-9.218 -6.894,-19.212 -6.894,-29.491" style="fill:none;stroke:#333;stroke-width:1.07px;stroke-dasharray:2.13,2.13,0,0;"/><path d="M471.016,324.801c0,-10.28 2.405,-20.274 6.895,-29.493c5.106,-10.48 12.674,-19.486 21.752,-26.69c17.176,-13.629 39.099,-20.398 60.746,-20.398c21.649,0 43.575,6.771 60.751,20.403c9.077,7.203 16.644,16.208 21.748,26.688c4.489,9.218 6.894,19.211 6.894,29.49c0,10.28 -2.405,20.275 -6.896,29.493c-5.105,10.481 -12.673,19.487 -21.751,26.69c-17.176,13.629 -39.099,20.399 -60.746,20.399c-21.649,0 -43.575,-6.771 -60.751,-20.403c-9.077,-7.204 -16.644,-16.209 -21.748,-26.688c-4.49,-9.218 -6.894,-19.212 -6.894,-29.491" style="fill:none;stroke:#333;stroke-width:1.07px;stroke-dasharray:2.13,2.13,0,0;"/><path d="M560.409,369.383c-24.622,0 -44.582,-19.96 -44.582,-44.582c0,-24.622 19.96,-44.582 44.582,-44.582c24.622,0 44.582,19.96 44.582,44.582c0,24.622 -19.96,44.582 -44.582,44.582" style="fill:none;stroke:#333;stroke-width:1.6px;stroke-dasharray:3.2,3.2,0,0;"/><path d="M560.409,369.383c-24.622,0 -44.582,-19.96 -44.582,-44.582c0,-24.622 19.96,-44.582 44.582,-44.582c24.622,0 44.582,19.96 44.582,44.582c0,24.622 -19.96,44.582 -44.582,44.582" style="fill:none;stroke:#333;stroke-width:1.6px;stroke-dasharray:3.2,3.2,0,0;"/><path d="M559.39,434.142c21.728,-0.212 43.827,6.415 61.177,19.946c17.365,13.543 29.066,33.532 29.233,56.194c0.167,22.654 -11.23,42.787 -28.435,56.536c-17.194,13.741 -39.229,20.579 -60.956,20.579c-21.728,0 -43.765,-6.839 -60.959,-20.581c-17.207,-13.752 -28.604,-33.89 -28.432,-56.547c0.172,-22.658 11.873,-42.643 29.235,-56.183c17.349,-13.53 39.448,-20.156 61.175,-19.944" style="fill:none;stroke:#333;stroke-width:1.6px;stroke-dasharray:3.2,3.2,0,0;"/><path d="M559.39,434.142c21.728,-0.212 43.827,6.415 61.177,19.946c17.365,13.543 29.066,33.532 29.233,56.194c0.167,22.654 -11.23,42.787 -28.435,56.536c-17.194,13.741 -39.229,20.579 -60.956,20.579c-21.728,0 -43.765,-6.839 -60.959,-20.581c-17.207,-13.752 -28.604,-33.89 -28.432,-56.547c0.172,-22.658 11.873,-42.643 29.235,-56.183c17.349,-13.53 39.448,-20.156 61.175,-19.944" style="fill:none;stroke:#333;stroke-width:1.6px;stroke-dasharray:3.2,3.2,0,0;"/><path d="M603.679,500.034c-2.314,-9.33 -7.358,-17.864 -14.777,-24.098c-7.428,-6.243 -16.696,-9.703 -26.427,-9.703c-0.688,-0.032 -1.377,-0.048 -2.066,-0.048c-0.689,0 -1.378,0.016 -2.067,0.048c-9.73,0 -18.998,3.46 -26.427,9.703c-7.418,6.234 -12.462,14.768 -14.777,24.098c-3.301,13.31 -0.293,27.4 8.156,38.202c8.45,10.801 21.401,17.113 35.115,17.113c13.714,0 26.665,-6.312 35.114,-17.113c8.45,-10.802 11.458,-24.892 8.156,-38.202" style="fill:none;stroke:#333;stroke-width:1.6px;stroke-dasharray:3.2,3.2,0,0;"/><path d="M603.679,500.034c-2.314,-9.33 -7.358,-17.864 -14.777,-24.098c-7.428,-6.243 -16.696,-9.703 -26.427,-9.703c-0.688,-0.032 -1.377,-0.048 -2.066,-0.048c-0.689,0 -1.378,0.016 -2.067,0.048c-9.73,0 -18.998,3.46 -26.427,9.703c-7.418,6.234 -12.462,14.768 -14.777,24.098c-3.301,13.31 -0.293,27.4 8.156,38.202c8.45,10.801 21.401,17.113 35.115,17.113c13.714,0 26.665,-6.312 35.114,-17.113c8.45,-10.802 11.458,-24.892 8.156,-38.202" style="fill:none;stroke:#333;stroke-width:1.6px;stroke-dasharray:3.2,3.2,0,0;"/><path d="M686.89,208.349c1.626,12.419 -1.214,25.012 -8.013,35.531c-7.164,11.085 -18.237,19.106 -31.065,22.325c-12.831,3.219 -26.376,1.365 -37.867,-5.192" style="fill:none;stroke:#333;stroke-width:1.6px;stroke-dasharray:3.2,3.2,0,0;"/><path d="M686.89,208.349c1.626,12.419 -1.214,25.012 -8.013,35.531c-7.164,11.085 -18.237,19.106 -31.065,22.325c-12.831,3.219 -26.376,1.365 -37.867,-5.192" style="fill:none;stroke:#333;stroke-width:1.6px;stroke-dasharray:3.2,3.2,0,0;"/><path d="M514.048,466.233c11.834,0 22.928,-5.759 29.738,-15.437c6.811,-9.678 8.485,-22.064 4.49,-33.203c-3.996,-11.139 -13.162,-19.637 -24.571,-22.78c-11.41,-3.142 -23.634,-0.537 -32.77,6.985c-11.849,9.757 -16.297,25.902 -11.114,40.35c5.182,14.447 18.878,24.085 34.227,24.085" style="fill:none;stroke:#333;stroke-width:1.07px;stroke-dasharray:2.13,2.13,0,0;"/><path d="M514.048,466.233c11.834,0 22.928,-5.759 29.738,-15.437c6.811,-9.678 8.485,-22.064 4.49,-33.203c-3.996,-11.139 -13.162,-19.637 -24.571,-22.78c-11.41,-3.142 -23.634,-0.537 -32.77,6.985c-11.849,9.757 -16.297,25.902 -11.114,40.35c5.182,14.447 18.878,24.085 34.227,24.085" style="fill:none;stroke:#333;stroke-width:1.07px;stroke-dasharray:2.13,2.13,0,0;"/><path d="M548.05,434.142c-9.208,0 -16.673,-7.464 -16.673,-16.672c0,-9.208 7.465,-16.673 16.673,-16.673c9.208,0 16.672,7.465 16.672,16.673c0,9.208 -7.464,16.672 -16.672,16.672" style="fill:none;stroke:#333;stroke-width:1.6px;stroke-dasharray:3.2,3.2,0,0;"/><path d="M548.05,434.142c-9.208,0 -16.673,-7.464 -16.673,-16.672c0,-9.208 7.465,-16.673 16.673,-16.673c9.208,0 16.672,7.465 16.672,16.673c0,9.208 -7.464,16.672 -16.672,16.672" style="fill:none;stroke:#333;stroke-width:1.6px;stroke-dasharray:3.2,3.2,0,0;"/><path d="M491.595,401.228c-5.498,4.98 -13.436,6.2 -20.176,3.102c-6.739,-3.097 -10.982,-9.916 -10.784,-17.331c0.198,-7.415 4.8,-13.997 11.695,-16.73c6.896,-2.733 14.757,-1.09 19.981,4.176c7.684,7.745 7.046,20.419 -1.376,27.353" style="fill:none;stroke:#333;stroke-width:1.6px;stroke-dasharray:3.2,3.2,0,0;"/><path d="M491.595,401.228c-5.498,4.98 -13.436,6.2 -20.176,3.102c-6.739,-3.097 -10.982,-9.916 -10.784,-17.331c0.198,-7.415 4.8,-13.997 11.695,-16.73c6.896,-2.733 14.757,-1.09 19.981,4.176c7.684,7.745 7.046,20.419 -1.376,27.353" style="fill:none;stroke:#333;stroke-width:1.6px;stroke-dasharray:3.2,3.2,0,0;"/><path d="M559.39,434.142l-11.34,0" style="fill:none;stroke:#333;stroke-width:1.07px;stroke-dasharray:2.13,2.13,0,0;"/><path d="M559.39,434.142l-11.34,0" style="fill:none;stroke:#333;stroke-width:1.07px;stroke-dasharray:2.13,2.13,0,0;"/><path d="M644.874,299.71c22.734,-2.597 43.446,-14.297 57.405,-32.428c12.926,-16.791 19.077,-37.823 17.234,-58.933" style="fill:none;stroke:#333;stroke-width:1.6px;stroke-dasharray:3.2,3.2,0,0;"/><path d="M644.874,299.71c22.734,-2.597 43.446,-14.297 57.405,-32.428c12.926,-16.791 19.077,-37.823 17.234,-58.933" style="fill:none;stroke:#333;stroke-width:1.6px;stroke-dasharray:3.2,3.2,0,0;"/><path d="M366.239,466.233l414.578,0" style="fill:none;stroke:#333;stroke-width:1.6px;stroke-dasharray:3.2,3.2,0,0;"/><path d="M326.131,466.233l522.102,0" style="fill:none;stroke:#333;stroke-width:1.82px;stroke-dasharray:3.64,3.64,0,0;"/><path d="M825.192,387.494l-499.061,0" style="fill:none;stroke:#333;stroke-width:1.18px;stroke-dasharray:2.36,2.36,0,0;"/><path d="M780.817,417.47l-414.578,0" style="fill:none;stroke:#333;stroke-width:1.07px;stroke-dasharray:2.13,2.13,0,0;"/><path d="M825.192,417.47l-510.308,0" style="fill:none;stroke:#333;stroke-width:1.2px;stroke-dasharray:2.39,2.39,0,0;"/><path d="M560.409,208.349l0,414.579" style="fill:none;stroke:#333;stroke-width:1.07px;stroke-dasharray:2.13,2.13,0,0;"/><path d="M560.409,153.734l0,508.479" style="fill:none;stroke:#333;stroke-width:1.19px;stroke-dasharray:2.39,2.39,0,0;"/><path d="M514.048,216.061l0,406.867" style="fill:none;stroke:#333;stroke-width:1.07px;stroke-dasharray:2.13,2.13,0,0;"/><path d="M514.048,171.656l0,490.557" style="fill:none;stroke:#333;stroke-width:1.18px;stroke-dasharray:2.36,2.36,0,0;"/><path d="M635.278,208.349l0,414.579" style="fill:none;stroke:#333;stroke-width:1.07px;stroke-dasharray:2.13,2.13,0,0;"/><path d="M635.278,153.734l0,500.768" style="fill:none;stroke:#333;stroke-width:1.18px;stroke-dasharray:2.37,2.37,0,0;"/><path d="M479.157,208.349l0,414.579" style="fill:none;stroke:#333;stroke-width:1.07px;stroke-dasharray:2.13,2.13,0,0;"/><path d="M479.157,176.775l0,446.153" style="fill:none;stroke:#333;stroke-width:1.11px;stroke-dasharray:2.22,2.22,0,0;"/><path d="M548.05,208.349l0,414.579" style="fill:none;stroke:#333;stroke-width:1.07px;stroke-dasharray:2.13,2.13,0,0;"/><path d="M548.05,163.945l0,490.557" style="fill:none;stroke:#333;stroke-width:1.17px;stroke-dasharray:2.34,2.34,0,0;"/><path d="M780.817,429.87l-414.578,0" style="fill:none;stroke:#333;stroke-width:1.07px;stroke-dasharray:2.13,2.13,0,0;"/><path d="M825.192,429.87l-499.061,0" style="fill:none;stroke:#333;stroke-width:1.18px;stroke-dasharray:2.36,2.36,0,0;"/><path d="M780.817,215.701l-414.578,0" style="fill:none;stroke:#333;stroke-width:1.07px;stroke-dasharray:2.13,2.13,0,0;"/><path d="M780.817,215.701l-414.578,0" style="fill:none;stroke:#333;stroke-width:1.07px;stroke-dasharray:2.13,2.13,0,0;"/><path d="M780.817,324.801l-414.578,0" style="fill:none;stroke:#333;stroke-width:1.07px;stroke-dasharray:2.13,2.13,0,0;"/><path d="M813.945,324.801l-499.061,0" style="fill:none;stroke:#333;stroke-width:1.18px;stroke-dasharray:2.36,2.36,0,0;"/><path d="M471.016,324.801c0,-10.28 2.405,-20.274 6.895,-29.493c5.106,-10.48 12.674,-19.486 21.752,-26.69c17.176,-13.629 39.099,-20.398 60.746,-20.398c21.649,0 43.575,6.771 60.751,20.403c9.077,7.203 16.644,16.208 21.748,26.688c4.489,9.218 6.894,19.211 6.894,29.49c0,10.28 -2.405,20.275 -6.896,29.493c-5.105,10.481 -12.673,19.487 -21.751,26.69c-17.176,13.629 -39.099,20.399 -60.746,20.399c-21.649,0 -43.575,-6.771 -60.751,-20.403c-9.077,-7.204 -16.644,-16.209 -21.748,-26.688c-4.49,-9.218 -6.894,-19.212 -6.894,-29.491" style="fill:none;stroke:#333;stroke-width:1.6px;stroke-dasharray:3.2,3.2,0,0;"/><path d="M471.016,324.801c0,-10.28 2.405,-20.274 6.895,-29.493c5.106,-10.48 12.674,-19.486 21.752,-26.69c17.176,-13.629 39.099,-20.398 60.746,-20.398c21.649,0 43.575,6.771 60.751,20.403c9.077,7.203 16.644,16.208 21.748,26.688c4.489,9.218 6.894,19.211 6.894,29.49c0,10.28 -2.405,20.275 -6.896,29.493c-5.105,10.481 -12.673,19.487 -21.751,26.69c-17.176,13.629 -39.099,20.399 -60.746,20.399c-21.649,0 -43.575,-6.771 -60.751,-20.403c-9.077,-7.204 -16.644,-16.209 -21.748,-26.688c-4.49,-9.218 -6.894,-19.212 -6.894,-29.491" style="fill:none;stroke:#333;stroke-width:1.6px;stroke-dasharray:3.2,3.2,0,0;"/><path d="M835.219,392.935l-255.136,-239.201" style="fill:none;stroke:#333;stroke-width:1.47px;stroke-dasharray:2.94,2.94,0,0;"/><path d="M366.239,510.767l414.578,0" style="fill:none;stroke:#333;stroke-width:0.83px;stroke-dasharray:1.67,1.67,0,0;"/><path d="M366.239,510.767l445.299,0" style="fill:none;stroke:#333;stroke-width:0.83px;stroke-dasharray:1.67,1.67,0,0;"/><path d="M780.817,491.01l-414.578,0" style="fill:none;stroke:#333;stroke-width:1.6px;stroke-dasharray:3.2,3.2,0,0;"/><path d="M825.192,491.01l-522.102,0" style="fill:none;stroke:#333;stroke-width:1.82px;stroke-dasharray:3.64,3.64,0,0;"/></g><circle cx="575.662" cy="404.623" r="232.967" style="fill:none;stroke:#333;stroke-width:9.83px;stroke-linecap:round;stroke-linejoin:round;stroke-miterlimit:1.5;"/><path d="M514.119,466.22c-1.742,0 -3.524,-0.126 -5.318,-0.392c-1.794,-0.265 -3.601,-0.671 -5.387,-1.222c-1.786,-0.551 -3.552,-1.247 -5.262,-2.085c-1.71,-0.837 -3.365,-1.815 -4.932,-2.917c-1.567,-1.103 -3.046,-2.331 -4.411,-3.658c-1.366,-1.327 -2.618,-2.754 -3.74,-4.249c-0.561,-0.747 -1.089,-1.512 -1.584,-2.29c-0.495,-0.777 -0.957,-1.568 -1.385,-2.368c-0.428,-0.8 -0.823,-1.61 -1.182,-2.421c-0.36,-0.813 -0.686,-1.627 -0.982,-2.452c-0.296,-0.825 -0.562,-1.661 -0.8,-2.517c-0.239,-0.855 -0.449,-1.731 -0.627,-2.621c-0.178,-0.889 -0.324,-1.793 -0.436,-2.708c-0.112,-0.915 -0.19,-1.841 -0.233,-2.775c-0.084,-1.868 -0.024,-3.765 0.186,-5.657c0.211,-1.892 0.573,-3.78 1.081,-5.628c0.509,-1.847 1.165,-3.654 1.953,-5.387c0.789,-1.733 1.709,-3.393 2.737,-4.954c1.029,-1.561 2.166,-3.022 3.382,-4.368c1.217,-1.346 2.512,-2.575 3.857,-3.682c0.962,-0.792 1.864,-1.699 2.669,-2.703c0.805,-1.004 1.514,-2.104 2.099,-3.266c0.293,-0.581 0.554,-1.178 0.783,-1.785c0.229,-0.607 0.426,-1.224 0.589,-1.847c0.163,-0.623 0.292,-1.251 0.388,-1.878c0.096,-0.626 0.159,-1.251 0.191,-1.877c0.031,-0.626 0.031,-1.253 -0.001,-1.886c-0.033,-0.633 -0.099,-1.271 -0.199,-1.907c-0.099,-0.636 -0.233,-1.27 -0.4,-1.897c-0.166,-0.627 -0.367,-1.247 -0.599,-1.855c-0.466,-1.215 -1.061,-2.38 -1.761,-3.46c-0.701,-1.079 -1.507,-2.073 -2.385,-2.957c-1.799,-1.813 -3.495,-3.696 -5.08,-5.633c-1.586,-1.937 -3.059,-3.93 -4.415,-5.963c-1.356,-2.034 -2.595,-4.108 -3.714,-6.209c-1.118,-2.1 -2.116,-4.227 -2.994,-6.366c-0.878,-2.139 -1.636,-4.289 -2.278,-6.437c-0.641,-2.149 -1.165,-4.296 -1.579,-6.428c-0.207,-1.067 -0.385,-2.13 -0.537,-3.188c-0.152,-1.057 -0.278,-2.11 -0.377,-3.157c-0.099,-1.048 -0.172,-2.091 -0.221,-3.121c-0.048,-1.031 -0.072,-2.049 -0.072,-3.072c0,-2.267 0.116,-4.558 0.361,-6.882c0.245,-2.323 0.618,-4.679 1.129,-7.049c0.512,-2.369 1.161,-4.752 1.956,-7.132c0.795,-2.38 1.735,-4.757 2.822,-7.112c1.088,-2.355 2.323,-4.689 3.705,-6.98c1.383,-2.291 2.911,-4.54 4.579,-6.728c1.669,-2.188 3.477,-4.314 5.414,-6.359c1.937,-2.045 4.003,-4.01 6.182,-5.878c2.179,-1.868 4.471,-3.639 6.858,-5.3c2.386,-1.66 4.865,-3.21 7.417,-4.64c2.552,-1.431 5.176,-2.741 7.849,-3.925c2.673,-1.185 5.395,-2.244 8.142,-3.177c2.748,-0.932 5.521,-1.738 8.297,-2.419c2.777,-0.681 5.556,-1.238 8.32,-1.676c2.764,-0.439 5.512,-0.759 8.224,-0.969c2.711,-0.209 5.385,-0.309 8.027,-0.309c1.004,0 2.003,0.014 3.014,0.044c1.01,0.029 2.031,0.073 3.056,0.133c1.025,0.06 2.055,0.136 3.089,0.227c1.034,0.092 2.073,0.199 3.116,0.323c2.086,0.249 4.186,0.563 6.292,0.947c2.107,0.384 4.219,0.838 6.33,1.363c2.11,0.526 4.217,1.123 6.313,1.793c2.096,0.671 4.179,1.414 6.24,2.231c2.061,0.816 4.099,1.706 6.105,2.667c2.006,0.961 3.98,1.994 5.911,3.096c2.57,1.468 5.357,2.761 8.319,3.807c1.481,0.524 3.006,0.986 4.568,1.378c1.561,0.393 3.159,0.716 4.784,0.963c1.625,0.247 3.277,0.417 4.945,0.507c1.669,0.089 3.353,0.097 5.043,0.02c1.689,-0.076 3.383,-0.237 5.07,-0.483c1.686,-0.245 3.365,-0.576 5.023,-0.99c1.658,-0.414 3.296,-0.91 4.902,-1.486c1.606,-0.575 3.181,-1.23 4.712,-1.956c1.532,-0.726 3.021,-1.525 4.458,-2.388c1.437,-0.862 2.823,-1.789 4.15,-2.77c1.327,-0.981 2.596,-2.016 3.801,-3.095c1.205,-1.08 2.346,-2.203 3.421,-3.359c2.149,-2.313 4.032,-4.759 5.646,-7.258l23.371,23.371c-3.345,4.348 -7.19,8.454 -11.454,12.168c-2.132,1.857 -4.369,3.616 -6.695,5.261c-2.326,1.646 -4.742,3.177 -7.229,4.582c-2.487,1.405 -5.046,2.684 -7.656,3.827c-2.61,1.143 -5.271,2.151 -7.962,3.019c-5.382,1.735 -10.882,2.909 -16.334,3.529c0.18,0.446 0.355,0.891 0.525,1.337c0.634,1.669 1.197,3.342 1.688,5.015c0.312,1.059 0.595,2.118 0.851,3.175c0.255,1.057 0.483,2.112 0.684,3.163c0.201,1.052 0.375,2.1 0.523,3.143c0.147,1.043 0.269,2.08 0.366,3.114c0.096,1.033 0.167,2.062 0.215,3.077c0.047,1.015 0.07,2.016 0.07,3.024c0,4.53 -0.468,9.199 -1.49,13.935c-0.512,2.368 -1.162,4.753 -1.957,7.134c-0.794,2.38 -1.734,4.757 -2.822,7.112c-1.087,2.355 -2.323,4.688 -3.705,6.98c-1.382,2.291 -2.91,4.54 -4.579,6.728c-1.668,2.188 -3.477,4.313 -5.414,6.359c-1.937,2.045 -4.003,4.01 -6.182,5.878c-2.179,1.868 -4.471,3.639 -6.857,5.299c-2.386,1.661 -4.866,3.211 -7.418,4.641c-2.552,1.431 -5.176,2.741 -7.849,3.925c-2.672,1.185 -5.394,2.244 -8.142,3.177c-2.747,0.932 -5.52,1.737 -8.297,2.419c-2.776,0.681 -5.557,1.238 -8.32,1.676c-5.527,0.877 -10.983,1.279 -16.248,1.278c-0.434,0 -0.867,-0.003 -1.303,-0.008c-0.436,-0.006 -0.874,-0.014 -1.313,-0.025c-0.879,-0.022 -1.762,-0.055 -2.649,-0.1c-0.887,-0.045 -1.779,-0.102 -2.674,-0.171c-0.896,-0.068 -1.794,-0.149 -2.697,-0.241c-1.088,-0.113 -2.211,-0.118 -3.335,-0.008c-1.124,0.111 -2.248,0.338 -3.337,0.679c-0.544,0.17 -1.08,0.368 -1.603,0.593c-0.523,0.224 -1.032,0.475 -1.526,0.75c-0.493,0.274 -0.971,0.574 -1.427,0.891c-0.456,0.318 -0.89,0.654 -1.308,1.013c-0.837,0.717 -1.611,1.524 -2.304,2.414c-0.347,0.445 -0.674,0.911 -0.976,1.394c-0.302,0.482 -0.58,0.981 -0.831,1.493c-0.252,0.512 -0.477,1.036 -0.674,1.571c-0.198,0.534 -0.367,1.078 -0.508,1.624c-0.281,1.092 -0.447,2.191 -0.503,3.296c-0.057,1.104 -0.005,2.215 0.163,3.329c0.084,0.558 0.197,1.116 0.339,1.668c0.141,0.552 0.312,1.097 0.51,1.632c0.198,0.535 0.423,1.059 0.674,1.57c0.251,0.511 0.528,1.008 0.827,1.487c0.599,0.956 1.287,1.838 2.045,2.637c0.38,0.4 0.777,0.778 1.198,1.141c0.421,0.363 0.866,0.709 1.329,1.033c0.462,0.324 0.944,0.625 1.441,0.902c0.497,0.277 1.009,0.529 1.534,0.754c1.048,0.45 2.143,0.791 3.25,1.016c1.106,0.226 2.224,0.335 3.318,0.334l11.326,0l0.255,-0.002c0.085,0 0.169,-0.001 0.254,-0.001c0.085,-0.001 0.17,-0.001 0.255,-0.001c0.084,0 0.168,-0.001 0.253,-0.001c5.26,0 10.718,0.402 16.245,1.279c2.763,0.438 5.544,0.996 8.32,1.677c2.777,0.681 5.55,1.487 8.297,2.419c2.748,0.933 5.47,1.992 8.142,3.177c2.673,1.185 5.297,2.495 7.849,3.925c2.552,1.43 5.032,2.981 7.418,4.641c2.386,1.661 4.678,3.432 6.857,5.3c2.179,1.868 4.245,3.832 6.182,5.878c1.937,2.045 3.746,4.171 5.414,6.358c1.669,2.188 3.197,4.437 4.579,6.728c1.382,2.292 2.618,4.625 3.705,6.98c1.088,2.355 2.028,4.732 2.822,7.112c0.795,2.38 1.445,4.763 1.956,7.132c0.256,1.184 0.477,2.365 0.665,3.54c0.188,1.176 0.342,2.345 0.465,3.508c0.122,1.164 0.212,2.32 0.272,3.465c0.06,1.145 0.089,2.278 0.089,3.412c0,1.133 -0.029,2.266 -0.089,3.411c-0.06,1.145 -0.15,2.302 -0.272,3.465c-0.123,1.163 -0.277,2.333 -0.465,3.508c-0.188,1.176 -0.409,2.357 -0.665,3.541c-0.511,2.369 -1.161,4.752 -1.956,7.133c-0.794,2.38 -1.734,4.757 -2.822,7.112c-1.087,2.355 -2.323,4.688 -3.705,6.98c-1.382,2.291 -2.91,4.54 -4.579,6.728c-1.668,2.187 -3.477,4.313 -5.414,6.358c-1.937,2.046 -4.003,4.011 -6.182,5.878c-2.179,1.868 -4.471,3.639 -6.857,5.3c-2.386,1.66 -4.866,3.211 -7.418,4.641c-2.552,1.43 -5.176,2.74 -7.849,3.925c-2.672,1.185 -5.394,2.244 -8.142,3.176c-2.747,0.933 -5.52,1.738 -8.297,2.42c-2.776,0.681 -5.556,1.238 -8.32,1.676c-2.763,0.438 -5.509,0.758 -8.223,0.968c-1.357,0.105 -2.706,0.182 -4.042,0.234c-1.335,0.051 -2.658,0.076 -3.98,0.076c-1.322,0 -2.644,-0.025 -3.979,-0.076c-1.336,-0.052 -2.685,-0.129 -4.042,-0.234c-2.714,-0.21 -5.46,-0.53 -8.224,-0.968c-2.763,-0.438 -5.543,-0.995 -8.32,-1.676c-2.776,-0.682 -5.549,-1.487 -8.297,-2.42c-2.747,-0.932 -5.469,-1.991 -8.142,-3.176c-2.673,-1.185 -5.297,-2.495 -7.849,-3.925c-2.552,-1.43 -5.031,-2.981 -7.417,-4.641c-2.387,-1.661 -4.679,-3.432 -6.858,-5.3c-2.179,-1.867 -4.245,-3.832 -6.182,-5.878c-1.937,-2.045 -3.745,-4.171 -5.414,-6.358c-1.668,-2.188 -3.196,-4.437 -4.579,-6.728c-1.382,-2.292 -2.617,-4.625 -3.705,-6.98c-1.087,-2.355 -2.027,-4.732 -2.822,-7.112c-0.795,-2.381 -1.445,-4.766 -1.956,-7.134c-1.022,-4.737 -1.491,-9.409 -1.49,-13.932c0,-0.796 0.014,-1.587 0.044,-2.387c0.029,-0.8 0.073,-1.609 0.133,-2.422c0.06,-0.812 0.135,-1.627 0.226,-2.446c0.091,-0.819 0.198,-1.642 0.321,-2.468c0.247,-1.651 0.56,-3.314 0.941,-4.982c0.382,-1.669 0.832,-3.343 1.353,-5.019l46.345,0c-0.983,1.988 -1.841,4.1 -2.54,6.31c-0.698,2.211 -1.237,4.52 -1.589,6.89c-0.351,2.37 -0.515,4.8 -0.476,7.245c0.039,2.444 0.282,4.903 0.726,7.324c0.444,2.421 1.091,4.805 1.923,7.105c0.831,2.299 1.847,4.513 3.017,6.604c0.585,1.045 1.209,2.06 1.866,3.04c0.657,0.98 1.347,1.926 2.067,2.835c0.719,0.91 1.468,1.783 2.237,2.615c0.769,0.832 1.559,1.622 2.378,2.382c0.818,0.761 1.664,1.49 2.55,2.197c0.887,0.706 1.812,1.388 2.772,2.039c0.96,0.651 1.954,1.27 2.98,1.853c1.026,0.583 2.083,1.13 3.169,1.637c2.171,1.014 4.454,1.864 6.808,2.525c2.354,0.66 4.779,1.13 7.226,1.395c2.448,0.265 4.917,0.326 7.358,0.186c2.441,-0.141 4.853,-0.482 7.191,-1.007c1.169,-0.262 2.319,-0.57 3.446,-0.92c1.127,-0.35 2.231,-0.741 3.308,-1.171c1.077,-0.43 2.127,-0.899 3.144,-1.398c1.017,-0.5 2,-1.032 2.962,-1.599c0.962,-0.567 1.904,-1.17 2.833,-1.817c0.93,-0.648 1.848,-1.34 2.746,-2.075c0.898,-0.734 1.775,-1.51 2.626,-2.326c0.852,-0.817 1.679,-1.674 2.474,-2.57c1.591,-1.792 3.058,-3.737 4.363,-5.804c1.305,-2.068 2.448,-4.258 3.401,-6.527c0.476,-1.135 0.906,-2.29 1.286,-3.459c0.38,-1.168 0.711,-2.35 0.992,-3.54c0.281,-1.19 0.512,-2.387 0.693,-3.585c0.182,-1.199 0.313,-2.399 0.395,-3.594c0.082,-1.195 0.116,-2.385 0.102,-3.566c-0.013,-1.18 -0.073,-2.349 -0.178,-3.504c-0.052,-0.577 -0.115,-1.15 -0.189,-1.719c-0.074,-0.569 -0.158,-1.133 -0.253,-1.694c-0.095,-0.559 -0.2,-1.115 -0.314,-1.663c-0.114,-0.549 -0.238,-1.09 -0.375,-1.641c-0.273,-1.103 -0.599,-2.243 -0.967,-3.373c-0.369,-1.129 -0.78,-2.248 -1.238,-3.358c-0.914,-2.221 -2.013,-4.407 -3.29,-6.503c-0.639,-1.048 -1.323,-2.074 -2.048,-3.072c-0.726,-0.998 -1.495,-1.968 -2.303,-2.904c-1.617,-1.872 -3.394,-3.608 -5.297,-5.169c-1.903,-1.562 -3.933,-2.948 -6.045,-4.135c-2.112,-1.187 -4.307,-2.174 -6.536,-2.954c-2.228,-0.78 -4.491,-1.353 -6.743,-1.728c-2.251,-0.375 -4.491,-0.551 -6.681,-0.551l-48.364,0Zm90.824,-141.248c0,-24.59 -19.934,-44.524 -44.524,-44.524c-24.59,0 -44.523,19.934 -44.523,44.524c0,24.59 19.933,44.524 44.523,44.524c24.59,0 44.524,-19.934 44.524,-44.524Z" style="fill:#333;"/></g><text x="373.847px" y="708.529px" style="font-family:'Roboto-Black', 'Roboto';font-weight:900;font-size:48.729px;fill:#0f0f0f;">GRID GENERA<tspan x="681.28px 711.331px " y="708.529px 708.529px ">TO</tspan>R</text></svg>